<!-- icon666.com - MILLIONS vector ICONS FREE --><svg version="1.1" id="Capa_1" xmlns="http://www.w3.org/2000/svg" xmlns:xlink="http://www.w3.org/1999/xlink" x="0px" y="0px" viewBox="0 0 512 512" style="enable-background:new 0 0 512 512;" xml:space="preserve"><path style="fill:#787780;" d="M464.92,286.611c-2.856,0-5.698-0.82-8.174-2.417l-199.31-128.818 c-4.102-2.666-6.65-7.178-6.812-12.07c-0.176-4.907,2.065-9.58,5.991-12.51L416.093,10.654c22.471-16.846,57.938-13.271,76.469,7.72 c10.62,12.012,15.571,28.037,13.579,43.945l-26.338,211.152c-0.645,5.127-3.867,9.565-8.555,11.748 C469.227,286.143,467.073,286.611,464.92,286.611z"></path><path style="fill:#8B8892;" d="M42.188,290.977c-2.153,0-4.307-0.469-6.328-1.406c-4.688-2.168-7.91-6.606-8.555-11.733 L0.439,62.319c-1.992-15.908,2.959-31.934,13.579-43.945C32.607-2.69,67.104-6.162,89.487,10.654l163.949,122.749 c3.926,2.944,6.167,7.603,5.991,12.51c-0.161,4.893-2.71,9.404-6.826,12.07L50.347,288.56 C47.886,290.156,45.044,290.977,42.188,290.977z"></path><path style="fill:#FEC478;" d="M291.786,141.914l161.225,104.077l23.364-187.393c0.938-7.485-1.303-14.707-6.298-20.361 c-8.672-9.814-24.463-11.455-34.995-3.589L291.786,141.914z"></path><path style="fill:#FEDBAB;" d="M55.928,29.463c-7.529,0-14.429,3.105-19.424,8.76s-7.236,12.891-6.299,20.376l23.892,191.772 l164.154-105.864L71.484,34.648C67.017,31.309,61.509,29.463,55.928,29.463z"></path><path style="fill:#AEADB3;" d="M256,60C115.3,60,0,160.8,0,285s115.3,227,256,227s256-102.8,256-227S396.7,60,256,60z"></path><path style="fill:#8B8892;" d="M512,285c0,124.2-115.3,227-256,227V60C396.7,60,512,160.8,512,285z"></path><path style="fill:#FCBF29;" d="M316,330h-30c-8.291,0-15-6.709-15-15c0-57.891,47.109-105,105-105h30c8.291,0,15,6.709,15,15 C421,282.891,373.891,330,316,330z"></path><path style="fill:#FEDB41;" d="M226,330h-30c-57.891,0-106-47.109-106-105c0-8.291,7.709-15,16-15h30c57.891,0,105,47.109,105,105 C241,323.291,234.291,330,226,330z"></path><g><path style="fill:#896748;" d="M256,300c-24.901,0-45,20.099-45,45c0,3.9,1.5,7.8,4.501,10.499l30,30 C248.2,388.5,252.1,390,256,390s7.8-1.5,10.499-4.501l30-30C299.5,352.8,301,348.9,301,345C301,320.099,280.901,300,256,300z"></path><path style="fill:#896748;" d="M331,405c0,24.899-20.099,45-45,45c-11.7,0-21.899-4.501-30-11.7c-8.101,7.2-18.3,11.7-30,11.7 c-24.901,0-45-20.101-45-45c0-8.401,6.599-15,15-15s15,6.599,15,15c0,8.399,6.599,15,15,15s15-6.601,15-15v-30 c0-8.401,6.599-15,15-15s15,6.599,15,15v30c0,8.399,6.599,15,15,15s15-6.601,15-15c0-8.401,6.599-15,15-15S331,396.599,331,405z"></path></g><g><path style="fill:#73553A;" d="M166,324.873c-8.291,0-15-6.709-15-15v-79.746c0-8.291,6.709-15,15-15s15,6.709,15,15v79.746 C181,318.164,174.291,324.873,166,324.873z"></path><path style="fill:#73553A;" d="M346,324.873c-8.291,0-15-6.709-15-15v-79.746c0-8.291,6.709-15,15-15s15,6.709,15,15v79.746 C361,318.164,354.291,324.873,346,324.873z"></path><path style="fill:#73553A;" d="M301,345c0,3.9-1.5,7.8-4.501,10.499l-30,30C263.8,388.5,259.9,390,256,390v-90 C280.901,300,301,320.099,301,345z"></path><path style="fill:#73553A;" d="M331,405c0,24.899-20.099,45-45,45c-11.7,0-21.899-4.501-30-11.7V360c8.401,0,15,6.599,15,15v30 c0,8.399,6.599,15,15,15s15-6.601,15-15c0-8.401,6.599-15,15-15S331,396.599,331,405z"></path></g></svg>