<?xml version="1.0" standalone="no"?>
<!DOCTYPE svg PUBLIC "-//W3C//DTD SVG 20010904//EN"
 "http://www.w3.org/TR/2001/REC-SVG-20010904/DTD/svg10.dtd">
<svg version="1.0" xmlns="http://www.w3.org/2000/svg"
 width="548.000000pt" height="548.000000pt" viewBox="0 0 548.000000 548.000000"
 preserveAspectRatio="xMidYMid meet">
<metadata>
Created by potrace 1.14, written by Peter Selinger 2001-2017
</metadata>
<g transform="translate(0.000000,548.000000) scale(0.100000,-0.100000)"
fill="#000000" stroke="none">
<path d="M367 5313 c-13 -12 -7 -23 11 -22 10 0 12 3 4 6 -6 2 -10 9 -6 14 6
10 0 12 -9 2z"/>
<path d="M410 5302 c0 -5 18 -13 41 -19 22 -6 37 -7 32 -3 -13 12 -73 30 -73
22z"/>
<path d="M306 5263 c-22 -12 -25 -17 -15 -24 10 -6 19 -2 30 13 12 15 18 17
21 8 3 -9 11 -11 24 -6 19 8 19 8 -1 16 -25 11 -24 11 -59 -7z"/>
<path d="M454 5251 c4 -6 16 -11 27 -11 11 0 34 -14 51 -30 25 -25 37 -30 73
-28 24 0 42 5 39 10 -8 12 13 10 54 -7 29 -13 33 -18 22 -25 -12 -7 -12 -12
-2 -22 24 -24 12 -31 -14 -8 -30 29 -105 40 -82 13 11 -14 10 -15 -9 -9 -12 4
-24 2 -27 -3 -4 -5 20 -17 51 -26 73 -20 81 -23 65 -24 -19 -1 -4 -21 16 -21
9 0 28 -9 40 -18 l24 -18 -49 -17 c-26 -9 -40 -16 -30 -16 20 -1 21 -5 7 -32
-8 -15 -7 -19 5 -19 8 0 15 -7 15 -15 0 -12 10 -15 45 -14 24 2 48 0 51 -4 4
-4 -7 -7 -25 -7 -48 0 -37 -29 19 -47 24 -8 50 -23 56 -32 13 -17 8 -19 -81
-36 -37 -7 -58 -25 -29 -25 11 0 25 -5 30 -10 7 -7 28 -7 63 0 68 13 94 13 86
0 -3 -5 -17 -10 -30 -10 -13 0 -27 -5 -31 -11 -4 -8 3 -9 25 -4 17 3 40 3 53
-1 21 -6 21 -7 3 -20 -20 -15 -58 -17 -120 -7 -31 5 -35 8 -20 14 12 5 0 7
-33 5 -64 -3 -89 -21 -29 -21 52 0 116 -14 142 -32 18 -12 18 -13 -11 -13 -32
0 -82 -28 -54 -31 8 0 27 0 43 1 19 1 27 -3 27 -14 0 -9 -8 -16 -20 -16 -11 0
-20 -4 -20 -10 0 -9 41 -15 85 -12 68 4 106 -21 45 -30 -23 -4 -23 -5 14 -23
45 -22 64 -51 24 -37 -16 6 -35 4 -61 -8 l-38 -17 62 -6 c83 -7 97 -24 15 -19
-36 2 -72 -1 -82 -7 -15 -8 -6 -10 44 -11 34 0 70 -4 80 -9 9 -5 28 -13 42
-19 l25 -10 -30 -7 c-16 -5 -33 -13 -37 -19 -5 -7 -8 -4 -8 6 0 10 -6 16 -12
14 -7 -3 -25 -7 -40 -10 -41 -9 -35 -29 7 -24 19 2 35 0 35 -4 0 -4 -3 -8 -7
-9 -60 -4 -85 -11 -102 -28 -19 -19 -19 -19 0 -24 12 -3 17 -11 13 -20 -4 -11
6 -21 35 -34 23 -11 38 -22 35 -26 -4 -4 -2 -7 4 -7 7 0 21 9 31 19 20 20 61
37 61 26 0 -4 -10 -15 -22 -26 l-23 -18 23 -1 c13 0 22 -6 22 -15 0 -8 5 -15
11 -15 5 0 -2 -11 -16 -24 -30 -28 -22 -38 30 -38 21 0 32 -4 29 -12 -2 -6 19
-22 48 -35 152 -70 331 -198 462 -330 49 -49 94 -87 99 -84 6 4 7 1 2 -7 -5
-8 -2 -17 7 -24 8 -6 29 -38 48 -70 18 -33 49 -82 67 -110 18 -28 33 -56 33
-62 0 -6 9 -23 20 -37 11 -14 20 -32 20 -41 0 -9 7 -19 15 -22 8 -4 15 -17 15
-31 0 -13 5 -33 11 -44 5 -11 9 -28 6 -37 -2 -11 -11 -1 -26 30 -12 25 -31 54
-42 64 -10 9 -19 23 -19 29 0 22 -71 84 -88 77 -11 -4 -14 -1 -9 10 4 11 -2
18 -18 22 -13 3 -33 22 -45 41 -12 20 -27 41 -34 48 -6 6 -19 31 -27 53 -16
40 -16 41 2 37 15 -4 18 -1 13 11 -3 9 -2 16 4 16 15 0 23 -43 9 -52 -8 -5 -6
-9 6 -14 9 -3 17 -11 17 -18 1 -12 35 -56 44 -56 4 0 2 9 -4 21 -7 11 -9 23
-6 27 12 11 21 -10 20 -48 -1 -37 15 -58 36 -45 4 3 10 -2 14 -10 3 -8 10 -15
16 -15 14 0 -32 90 -59 114 -12 11 -21 23 -21 28 0 17 -51 89 -59 83 -5 -2
-11 5 -15 18 -8 32 -158 181 -259 258 -49 36 -142 94 -208 128 -97 51 -125 61
-149 56 -17 -4 -30 -13 -30 -22 0 -8 -6 -13 -12 -11 -7 3 -19 -2 -27 -10 -12
-12 -12 -15 0 -24 11 -8 11 -9 -3 -4 -10 3 -21 -1 -25 -8 -12 -20 -51 -38 -58
-26 -4 7 -13 7 -26 0 -23 -13 -15 -34 9 -25 12 5 12 1 -3 -17 -11 -13 -20 -24
-21 -26 -4 -9 -33 13 -37 29 -6 23 -29 26 -25 3 2 -10 -5 -18 -16 -20 -10 -1
-32 -15 -49 -31 l-30 -28 7 28 c5 20 3 27 -9 27 -26 0 -16 27 15 40 44 18 37
28 -17 25 -27 -1 -69 -3 -95 -3 -50 -2 -96 -32 -82 -53 10 -16 -45 -59 -75
-59 -26 0 -42 -14 -103 -87 -28 -32 -34 -48 -30 -72 2 -17 8 -31 13 -31 5 0 9
-4 9 -10 0 -5 -9 -10 -20 -10 -11 0 -20 -3 -20 -6 0 -9 28 -34 38 -34 6 0 12
-6 15 -14 4 -10 -2 -16 -21 -18 -19 -2 -28 -10 -30 -25 -4 -25 -17 -28 -56
-14 -29 12 -40 1 -49 -46 -4 -18 -15 -52 -26 -75 -10 -24 -25 -72 -31 -108 -7
-36 -16 -75 -21 -87 -8 -22 8 -73 24 -73 4 0 19 12 32 28 18 21 26 24 36 15 9
-9 9 -15 0 -26 -9 -12 -8 -16 4 -21 20 -7 19 -25 -2 -33 -10 -4 -20 -10 -24
-15 -3 -4 -20 -9 -39 -11 -38 -5 -46 -15 -55 -70 -3 -21 -13 -41 -21 -44 -8
-3 -14 -19 -14 -37 0 -17 -4 -48 -9 -69 -8 -35 -7 -38 18 -43 14 -4 34 -13 43
-21 15 -13 16 -13 11 5 -4 16 1 21 21 24 26 3 33 23 9 23 -7 0 -18 6 -25 13
-9 9 -7 12 10 12 13 0 34 7 47 16 13 9 29 13 34 10 6 -4 8 7 6 29 -3 23 -1 35
8 36 6 1 23 2 37 3 38 2 93 17 107 28 14 11 73 1 73 -12 0 -11 -26 -18 -67
-18 -18 -1 -42 -7 -53 -15 -18 -12 -19 -16 -5 -27 22 -18 7 -33 -26 -26 -33 6
-41 -16 -11 -34 12 -8 13 -13 4 -16 -17 -8 -5 -24 19 -24 27 0 19 -24 -9 -28
-15 -2 -22 2 -22 12 0 13 -7 15 -27 10 -57 -12 -60 -14 -40 -28 16 -13 16 -14
-5 -20 -20 -6 -21 -8 -7 -19 23 -18 29 -62 10 -74 -17 -11 -20 -64 -6 -97 5
-12 3 -21 -6 -27 -11 -7 -11 -9 -1 -9 7 0 10 -5 7 -10 -5 -8 -11 -8 -20 0 -17
14 -55 -16 -55 -42 0 -21 -1 -20 68 -23 80 -3 88 -21 13 -30 -48 -6 -81 -21
-81 -35 0 -6 7 -10 16 -10 10 0 14 -6 10 -15 -3 -9 0 -15 9 -15 8 0 15 12 17
28 2 22 8 27 31 27 15 0 26 -4 25 -10 -1 -5 -8 -9 -15 -7 -7 2 -13 -2 -13 -8
0 -5 10 -10 21 -10 12 0 28 -8 35 -18 11 -14 9 -19 -9 -29 -17 -10 -18 -12 -5
-13 9 0 20 5 24 11 4 7 20 8 43 4 20 -4 56 -8 81 -7 l45 0 -40 -7 c-22 -4 -52
-6 -67 -5 -17 2 -28 -2 -28 -9 0 -7 -7 -21 -15 -31 -13 -16 -17 -17 -31 -5 -9
8 -25 13 -34 11 -10 -2 -20 4 -23 13 -4 9 -1 15 8 15 8 0 15 4 15 10 0 13 -43
-4 -48 -18 -2 -7 2 -12 9 -12 7 0 5 -6 -6 -14 -18 -13 -18 -14 6 -26 44 -24
67 -73 32 -69 -76 7 -100 -10 -82 -59 10 -28 29 -28 36 -2 3 12 12 20 21 18
29 -6 23 -28 -12 -45 -20 -9 -36 -23 -36 -30 0 -18 41 -16 68 3 18 12 26 13
37 4 19 -16 19 -30 -1 -30 -8 0 -12 5 -9 10 3 6 -2 10 -11 10 -16 0 -16 -2 1
-20 10 -11 26 -19 34 -18 9 1 17 -1 19 -5 6 -20 0 -28 -17 -22 -23 7 -33 -6
-20 -25 8 -12 12 -12 16 -2 4 9 8 10 18 2 7 -6 17 -10 21 -9 5 1 16 1 24 0 30
-3 -23 -31 -59 -31 -20 -1 -47 -7 -61 -15 -23 -12 -16 -13 65 -9 50 2 100 4
113 4 13 0 21 4 18 9 -3 5 1 12 10 15 15 6 15 8 -2 27 -16 17 -16 22 -4 29 13
8 12 10 -3 10 -15 0 -16 3 -6 22 9 17 9 24 -3 32 -8 6 -13 16 -11 23 2 6 -8
14 -24 16 -21 3 -18 4 9 4 26 -1 45 6 61 21 13 12 35 22 49 22 21 0 25 4 21
20 -4 14 0 20 11 20 10 0 15 4 12 9 -3 5 8 11 26 15 29 6 30 7 15 24 -21 23
-21 32 -1 32 13 0 13 2 2 13 -7 8 -20 16 -28 20 -8 3 -1 6 17 6 21 1 36 8 42
19 7 13 22 19 47 20 43 2 61 12 21 12 -15 0 -30 0 -33 -1 -4 0 -11 5 -15 13
-7 10 -12 11 -29 1 -20 -13 -106 -18 -134 -7 -9 3 -16 12 -16 19 0 7 -6 16
-12 19 -9 4 -8 5 2 4 8 -1 36 2 63 6 36 6 55 4 83 -9 46 -22 88 -13 79 16 -5
15 -2 22 14 26 16 4 20 11 16 24 -4 11 -2 19 4 19 6 0 8 7 5 15 -4 10 0 15 14
15 11 0 27 7 36 15 17 17 38 19 52 5 7 -7 19 -7 35 -1 l24 9 -25 10 c-23 10
-24 11 -3 11 33 1 53 12 53 28 0 11 9 13 40 8 25 -4 40 -2 40 5 0 5 -7 10 -15
10 -8 0 -15 4 -15 9 0 10 63 5 117 -9 19 -5 35 -4 39 1 3 5 27 9 54 9 29 0 50
5 53 13 4 8 8 8 14 2 4 -5 25 -18 46 -28 28 -13 36 -21 29 -30 -5 -7 -17 -34
-26 -62 -14 -44 -14 -55 -1 -90 8 -22 14 -50 15 -63 0 -12 10 -39 23 -60 21
-32 29 -49 39 -80 1 -4 15 -19 30 -34 15 -15 28 -32 28 -37 0 -13 131 -76 190
-91 25 -7 72 -17 105 -22 33 -5 80 -12 105 -16 32 -6 64 -3 112 11 89 24 104
16 114 -60 5 -40 9 -51 13 -36 4 13 10 19 17 15 16 -11 24 -50 10 -56 -8 -3
-7 -5 1 -5 14 -1 46 43 49 66 4 24 13 27 20 8 4 -10 2 -26 -5 -36 -8 -14 -8
-19 0 -19 6 0 9 -6 6 -14 -4 -10 0 -12 14 -9 14 4 18 11 14 24 -5 15 -2 18 12
13 13 -4 14 -3 5 4 -9 6 -11 18 -6 36 4 19 1 33 -11 46 -17 19 -17 20 -1 20
11 0 14 4 9 13 -4 6 -9 30 -9 52 -6 158 -17 254 -39 311 -13 34 -21 65 -18 67
2 3 -3 14 -12 24 -46 51 -65 80 -65 101 0 14 -6 22 -17 22 -10 0 -45 27 -78
60 -33 33 -65 60 -71 60 -6 0 -44 14 -84 30 -40 17 -92 31 -116 33 -24 1 -44
5 -44 8 0 9 -50 -1 -87 -17 -17 -8 -42 -14 -56 -14 -13 0 -37 -4 -53 -9 -16
-5 -48 -14 -71 -21 -23 -7 -40 -17 -37 -21 3 -5 -2 -9 -10 -9 -10 0 -16 -9
-16 -22 -1 -30 -23 -58 -46 -58 -17 0 -17 0 1 13 34 26 8 36 -86 36 -50 -1
-93 1 -96 5 -4 3 5 6 20 6 14 0 28 4 32 9 3 6 27 7 54 4 31 -3 51 -1 55 6 4 6
0 11 -10 11 -10 0 -15 3 -11 6 3 4 -4 14 -15 24 -16 13 -33 16 -63 13 -61 -8
-32 12 45 30 48 11 57 15 33 16 -22 1 -33 6 -33 16 0 8 -6 15 -12 15 -7 1 -2
7 12 15 l25 14 -27 1 c-15 0 -30 5 -33 10 -3 6 -17 7 -30 4 -13 -3 -35 1 -52
11 -28 16 -27 16 32 9 33 -3 69 -10 80 -16 19 -9 19 -9 1 6 -17 14 -16 15 15
25 33 10 33 10 -9 5 -23 -3 -48 -2 -55 4 -7 5 -25 12 -42 15 -16 3 -50 15 -75
27 -25 11 -37 18 -28 16 10 -3 20 0 24 6 5 7 11 5 20 -7 8 -11 30 -19 61 -21
42 -4 45 -3 23 7 -14 6 -40 18 -59 27 -19 10 -40 16 -48 14 -7 -2 -10 3 -8 11
3 7 -4 24 -15 37 -36 41 -12 34 44 -14 30 -25 60 -46 68 -46 7 1 -5 16 -27 35
-50 43 -38 44 45 2 43 -21 76 -31 98 -29 18 2 30 8 27 13 -8 11 87 12 136 0
21 -5 43 -5 50 0 10 6 8 9 -9 9 -12 0 -39 9 -59 20 -21 11 -46 20 -55 20 -10
0 -18 7 -18 15 0 10 -11 16 -32 17 -18 1 -42 2 -53 3 -11 1 -25 -3 -32 -7 -7
-6 -24 -3 -45 8 -18 9 -28 19 -21 21 6 2 24 -4 40 -13 16 -10 23 -12 16 -4
-18 20 -16 30 5 23 15 -6 16 -5 2 12 -15 18 -14 19 10 2 13 -9 31 -17 40 -17
18 1 -38 50 -57 50 -7 0 -13 5 -13 10 0 6 7 10 15 10 8 0 15 5 15 10 0 6 -6
10 -14 10 -8 0 -17 7 -20 16 -8 21 -8 24 5 24 5 0 7 -4 4 -10 -3 -5 1 -10 10
-10 8 0 18 -7 21 -15 4 -8 10 -13 15 -10 4 3 4 17 -1 31 -12 31 -6 44 20 44
13 0 17 5 14 15 -4 8 -2 15 4 15 15 0 -3 70 -32 123 -14 26 -26 57 -26 68 0
10 -6 19 -14 19 -7 0 -22 12 -31 27 -17 25 -19 25 -31 8 -7 -9 -25 -17 -39
-17 -28 0 -31 -6 -12 -33 13 -17 15 -17 30 6 16 23 17 23 32 4 8 -11 15 -23
15 -27 0 -13 -28 -9 -33 5 -3 6 -8 -2 -12 -20 -4 -17 -14 -34 -22 -37 -11 -4
-11 -10 -3 -26 8 -16 8 -20 -4 -20 -19 0 -66 39 -47 40 11 0 10 5 -4 20 -10
11 -23 20 -29 20 -6 0 -3 -7 7 -14 36 -28 8 -33 -60 -11 -20 7 -22 4 -18 -24
3 -29 2 -31 -21 -25 -23 6 -24 4 -18 -20 5 -21 3 -26 -12 -26 -10 0 -27 9 -38
19 -24 22 -42 26 -73 16 -22 -7 -25 -12 -27 -45 -1 -8 -12 -20 -25 -26 -24
-12 -24 -12 18 -38 40 -26 53 -46 29 -46 -21 0 2 -13 27 -16 14 -2 47 -17 72
-33 30 -20 50 -28 56 -22 7 7 19 3 35 -9 13 -11 29 -17 34 -14 6 4 5 10 -3 15
-8 5 -9 9 -3 9 6 0 18 -8 28 -19 16 -17 15 -18 -16 -16 -18 1 -41 5 -51 9 -11
5 -23 4 -28 -1 -12 -12 -59 -5 -59 8 0 5 -8 9 -19 9 -10 0 -29 8 -42 18 -13
10 -33 22 -44 26 -22 9 -75 16 -75 10 0 -2 14 -17 31 -34 24 -22 41 -30 69
-30 21 0 43 -6 49 -14 7 -8 33 -24 58 -36 25 -11 43 -23 41 -25 -9 -9 -72 15
-94 36 -18 17 -30 20 -58 15 -30 -6 -37 -3 -55 22 -27 38 -75 59 -96 42 -8 -7
-12 -16 -10 -21 3 -4 -1 -11 -8 -16 -7 -4 -17 -17 -21 -28 -7 -19 -8 -19 -28
5 l-20 25 33 5 34 5 -32 20 c-32 19 -43 35 -23 35 18 0 11 15 -12 25 -19 8
-22 16 -20 50 5 50 18 66 49 60 24 -4 25 -4 8 23 -10 15 -28 38 -41 53 -13 14
-24 28 -24 31 0 4 25 5 55 4 l55 -4 0 68 c0 90 5 101 41 93 25 -5 29 -2 29 15
0 12 9 26 20 32 11 6 19 16 17 23 -1 6 8 13 20 15 30 5 36 29 13 52 -30 30
-26 54 7 47 15 -3 41 2 56 10 16 8 31 12 34 9 3 -2 19 4 36 14 33 21 67 13 67
-16 0 -9 8 -14 23 -13 42 4 78 -1 73 -10 -3 -5 9 -11 26 -15 19 -4 34 -2 39 5
4 6 12 8 19 4 9 -5 11 -4 6 3 -4 7 -2 12 5 12 7 0 2 11 -11 25 -13 14 -21 27
-19 30 8 8 110 -32 131 -52 17 -16 18 -16 12 0 -8 22 -3 22 59 -7 29 -13 59
-27 68 -29 18 -6 30 -49 19 -67 -4 -6 -14 -8 -23 -4 -13 5 -17 1 -17 -16 0
-11 4 -19 8 -16 5 3 8 -14 8 -37 -1 -23 2 -47 7 -54 11 -16 15 -103 4 -103 -5
0 -14 14 -20 30 -6 17 -15 30 -19 30 -5 0 -6 11 -2 24 3 14 -2 41 -13 64 -17
38 -20 40 -31 22 -6 -11 -9 -27 -5 -36 4 -12 3 -15 -5 -10 -7 4 -12 2 -12 -6
0 -7 -16 -18 -35 -24 -19 -6 -35 -8 -35 -4 0 4 -9 10 -20 13 -15 4 -20 0 -20
-14 0 -10 4 -19 9 -19 13 0 64 -50 57 -57 -3 -4 2 -18 11 -32 9 -14 20 -50 24
-80 9 -64 19 -77 47 -60 16 10 19 20 15 43 l-6 30 26 -26 c26 -26 38 -66 17
-53 -27 17 12 -67 46 -99 32 -29 26 -34 -12 -9 -22 14 -27 14 -34 2 -6 -9 -4
-22 6 -36 13 -21 13 -23 -6 -23 -11 0 -20 7 -20 15 0 8 -10 19 -22 26 -13 6
-40 30 -60 53 -37 40 -53 41 -23 2 19 -25 19 -36 1 -36 -8 0 -18 -5 -21 -10
-4 -7 2 -9 17 -5 16 4 29 1 37 -9 7 -9 17 -13 22 -10 5 3 17 0 26 -5 16 -9 16
-10 -4 -11 -13 0 -23 -5 -23 -11 0 -5 -4 -7 -10 -4 -5 3 -10 2 -10 -2 0 -18
39 -32 67 -24 20 6 41 4 63 -5 26 -11 41 -12 66 -4 19 7 38 9 44 5 14 -9 13 8
-2 23 -9 9 -9 12 2 12 16 0 51 -20 36 -20 -5 0 -3 -7 4 -15 9 -11 9 -15 1 -15
-7 0 0 -11 15 -25 31 -29 33 -29 57 -11 18 14 18 14 -1 20 -11 4 -23 13 -26
21 -3 8 -12 15 -21 15 -8 0 -15 6 -15 14 0 8 -6 16 -12 19 -7 2 -10 7 -7 11 3
4 19 -7 35 -22 18 -18 44 -32 69 -36 37 -6 39 -5 21 9 -19 14 -19 15 -2 15 10
0 33 -8 50 -19 54 -33 71 -34 84 -6 6 14 8 25 4 25 -5 0 -24 11 -42 25 l-35
25 39 -5 39 -4 -24 27 c-13 15 -28 30 -33 33 -4 4 -3 8 4 11 10 3 10 9 2 25
-9 16 -9 22 1 26 7 3 -2 19 -26 44 -21 22 -40 53 -43 69 -3 16 -9 31 -15 32
-5 2 -9 19 -9 38 0 19 -7 48 -15 64 -9 17 -11 30 -6 30 11 0 44 -50 38 -57 -8
-7 33 -95 56 -120 15 -17 17 -23 6 -23 -8 0 -1 -13 19 -30 17 -16 32 -35 32
-41 0 -5 8 -8 18 -5 11 4 27 -5 46 -25 34 -36 44 -32 21 8 -17 27 -16 26 14
-5 17 -18 29 -37 26 -43 -4 -5 0 -12 9 -15 8 -3 18 -19 21 -35 4 -16 16 -36
28 -44 11 -8 18 -18 14 -21 -4 -4 1 -16 10 -27 10 -11 12 -17 6 -13 -7 4 -13
2 -13 -4 0 -6 10 -15 23 -20 12 -5 16 -9 10 -9 -7 -1 -16 0 -19 2 -13 4 -25
-46 -13 -54 6 -3 11 -25 11 -48 0 -22 3 -41 7 -41 4 0 13 -16 20 -35 7 -19 17
-35 22 -35 5 0 9 -7 9 -15 0 -9 7 -18 15 -21 8 -4 15 -12 15 -18 0 -13 41 -56
54 -56 4 0 4 10 1 22 -6 16 -4 20 8 15 20 -8 30 32 13 53 -13 15 -15 52 -3 83
16 39 16 47 2 47 -8 0 -16 3 -16 8 -8 50 -6 65 12 83 24 24 30 59 14 79 -9 11
-10 22 -3 40 6 14 10 40 8 59 -1 26 1 33 13 28 25 -10 28 5 6 40 -11 18 -18
33 -15 33 4 0 0 10 -9 23 -8 13 -12 27 -9 30 4 4 2 13 -5 20 -6 8 -12 27 -13
43 -1 16 -7 32 -13 36 -6 5 -4 8 5 8 20 0 32 -10 53 -42 21 -34 43 -38 26 -5
-7 12 -15 24 -19 27 -12 8 -22 80 -11 80 12 0 61 -98 61 -122 0 -10 -7 -18
-15 -18 -8 0 -15 -4 -15 -10 0 -15 57 -12 64 3 9 21 36 -24 36 -60 0 -18 3
-33 8 -33 11 0 12 -89 1 -96 -6 -3 -3 -11 6 -18 18 -13 38 -96 24 -96 -5 0 -9
-7 -9 -15 0 -8 4 -15 9 -15 5 0 9 -18 8 -40 -1 -26 -7 -40 -16 -40 -8 0 -11
-6 -7 -16 3 -9 6 -18 6 -20 0 -3 5 -2 10 1 6 4 13 -7 16 -25 4 -17 11 -33 15
-36 5 -3 6 -10 3 -16 -4 -6 -3 -8 2 -5 6 3 16 2 22 -2 14 -9 6 -91 -9 -91 -5
0 -9 5 -9 10 0 6 -9 10 -21 10 -11 0 -17 -4 -14 -10 3 -5 1 -10 -4 -10 -6 0
-11 4 -11 9 0 5 -9 11 -20 14 -11 3 -24 17 -30 31 -5 14 -14 26 -20 26 -13 0
-13 -17 0 -25 6 -4 8 -15 5 -24 -3 -10 4 -28 15 -41 l21 -24 -20 -8 c-30 -11
-15 -38 21 -38 27 0 29 -3 26 -29 -2 -27 15 -61 33 -61 5 0 17 19 28 43 l19
42 11 -28 c13 -34 -1 -69 -27 -65 -11 2 -18 -5 -20 -19 -2 -15 2 -23 11 -23
26 0 47 12 47 26 0 8 4 14 10 14 10 0 3 -26 -14 -50 -6 -8 -7 -12 -2 -8 5 4
17 3 26 -2 31 -17 46 13 26 54 -9 19 -16 40 -15 48 0 7 4 4 8 -6 7 -17 9 -16
30 13 12 17 26 29 31 26 5 -3 11 -1 14 4 3 5 -1 11 -9 15 -9 3 -12 12 -9 23 5
15 4 15 -5 3 -18 -25 -25 -2 -14 47 8 33 8 52 1 60 -8 10 -5 13 11 13 11 0 21
-4 21 -9 0 -5 16 -15 35 -21 19 -6 35 -16 35 -21 0 -6 4 -8 9 -5 5 3 16 -5 25
-19 21 -32 35 -32 28 0 -2 14 -8 25 -13 25 -5 0 -9 6 -9 14 0 12 4 12 29 0 16
-8 34 -21 41 -29 14 -17 50 -20 50 -5 0 5 -6 7 -14 4 -8 -3 -16 4 -19 18 -4
13 -2 24 3 26 5 2 6 10 3 19 -5 13 -3 14 16 3 21 -11 22 -10 12 9 -15 27 -14
31 10 31 16 0 19 4 14 20 -4 12 -2 20 5 20 8 0 10 -11 6 -35 -6 -28 -4 -35 9
-35 8 0 15 -7 15 -15 0 -8 5 -15 10 -15 6 0 10 7 10 16 0 9 7 14 18 12 11 -2
17 -13 17 -28 0 -14 6 -25 13 -26 6 -1 17 -2 23 -3 16 -2 0 -21 -19 -21 -13 0
-17 -8 -16 -38 1 -20 2 -40 3 -45 0 -4 12 0 25 8 14 9 27 12 30 7 5 -9 -17
-24 -38 -26 -14 -1 -19 -23 -7 -31 14 -8 14 -55 1 -55 -5 0 -10 5 -10 10 0 6
-5 10 -11 10 -5 0 -9 -8 -8 -17 3 -32 -1 -44 -11 -38 -5 3 -10 -3 -10 -13 0
-11 7 -22 15 -26 22 -8 18 -24 -7 -28 -30 -4 -34 -32 -9 -57 21 -21 29 -81 11
-81 -5 0 -10 4 -10 9 0 5 -11 16 -25 25 -24 16 -25 16 -25 -6 0 -16 11 -29 35
-42 19 -11 35 -24 35 -30 0 -6 10 -16 22 -21 13 -6 23 -19 24 -30 2 -46 5 -56
14 -50 6 3 7 -1 4 -9 -10 -26 -35 -18 -47 14 -6 17 -15 30 -19 30 -5 0 -6 10
-3 23 7 31 -6 47 -43 52 -32 4 -32 4 -32 -39 0 -31 -5 -46 -16 -50 -10 -4 -13
-13 -9 -26 5 -16 2 -20 -14 -20 -12 0 -21 -4 -21 -9 0 -8 25 -23 42 -25 15 -2
20 -16 5 -16 -10 0 -17 -4 -17 -10 0 -5 -9 -10 -20 -10 -27 0 -44 -34 -25 -50
8 -7 12 -16 10 -21 -3 -4 3 -12 12 -18 14 -8 10 -9 -17 -5 -26 4 -31 3 -20 -5
8 -6 25 -11 38 -11 19 0 21 4 16 25 -6 24 -5 25 49 25 37 0 59 5 68 16 10 13
10 17 -2 25 -11 7 -9 9 8 9 15 0 21 -5 17 -14 -3 -9 5 -15 25 -19 29 -6 30 -8
19 -32 -13 -29 -29 -34 -25 -7 1 9 -1 18 -6 20 -16 6 -126 -21 -121 -30 4 -6
20 -7 36 -4 16 3 27 2 24 -3 -6 -10 37 -31 64 -31 12 0 22 9 26 24 3 15 11 23
19 20 7 -3 11 -14 8 -25 -3 -10 0 -19 6 -19 6 0 11 -4 11 -10 0 -5 -7 -10 -16
-10 -14 0 -14 -3 -4 -15 18 -21 8 -27 -25 -15 -31 12 -86 10 -78 -2 2 -5 13
-6 23 -3 13 4 19 -1 24 -20 6 -24 26 -36 26 -15 0 6 -5 10 -12 10 -9 0 -9 3
-1 11 17 17 33 1 25 -24 -5 -12 -7 -32 -6 -45 1 -13 -5 -26 -13 -29 -12 -5
-12 -7 -1 -15 10 -7 9 -11 -6 -20 -18 -10 -17 -12 10 -23 l29 -13 -32 -12
c-36 -13 -35 -42 1 -39 38 3 42 -3 6 -11 l-35 -7 33 -2 c17 0 32 -6 32 -12 0
-6 -8 -8 -17 -5 -12 4 -9 -1 7 -15 21 -18 22 -20 5 -17 -16 2 -20 -3 -20 -29
0 -23 3 -29 12 -22 8 7 10 5 6 -10 -3 -12 -1 -21 6 -21 6 0 11 -4 11 -10 0 -5
-6 -10 -13 -10 -7 0 -18 -5 -25 -12 -9 -9 -8 -16 4 -29 14 -16 14 -18 -5 -24
-12 -3 -21 -11 -21 -17 0 -6 -10 -8 -26 -4 -17 5 -23 3 -19 -4 3 -5 13 -10 21
-10 8 0 14 -4 14 -10 0 -5 -13 -7 -30 -3 -35 6 -41 -14 -14 -42 15 -15 14 -15
-12 -10 -22 5 -25 4 -14 -4 8 -6 10 -11 4 -11 -5 0 -16 6 -22 12 -10 10 -14
10 -20 1 -4 -7 -19 -14 -32 -15 -14 -2 -30 -9 -36 -17 -10 -12 -13 -11 -18 6
-8 24 -32 37 -49 26 -7 -4 -2 -10 13 -15 21 -6 20 -7 -10 -5 -19 0 -40 -2 -46
-5 -13 -8 -55 -5 -72 6 -7 4 -17 4 -23 1 -16 -11 -133 -7 -137 4 -2 7 -12 7
-29 0 -14 -5 -28 -7 -31 -4 -3 2 6 9 19 14 21 9 22 10 4 10 -11 1 -33 12 -49
26 -26 23 -27 25 -8 25 15 0 19 5 15 20 -3 11 -10 20 -17 20 -6 0 -6 4 3 9 10
7 8 12 -10 26 -15 11 -18 15 -6 12 22 -8 22 9 0 23 -17 9 -17 11 -1 20 19 12
13 40 -8 40 -21 0 -17 17 6 23 12 3 23 -1 29 -10 7 -13 9 -10 9 9 0 18 -5 25
-17 23 -17 -2 -61 22 -61 35 0 4 13 6 30 5 21 -1 31 4 36 17 9 28 -3 34 -26
13 -19 -17 -20 -17 -30 11 -9 23 -13 26 -21 14 -8 -11 -9 -9 -4 9 5 15 2 27
-6 32 -12 7 -11 9 1 9 13 0 13 1 0 10 -22 15 -45 13 -33 -2 19 -24 22 -59 7
-65 -12 -4 -12 -8 -2 -20 10 -13 8 -19 -15 -38 -17 -15 -22 -25 -14 -28 7 -3
3 -6 -7 -6 -18 -1 -18 -2 -2 -20 21 -23 12 -47 -21 -56 -24 -6 -25 -7 -7 -20
21 -16 48 -20 40 -6 -4 5 5 4 18 -2 32 -15 23 -27 -20 -27 -33 0 -46 -13 -21
-23 6 -3 -1 -6 -17 -6 -24 -1 -26 -3 -16 -16 7 -9 23 -12 43 -9 24 3 27 2 12
-4 -18 -8 -17 -10 12 -16 17 -4 34 -14 37 -22 3 -8 11 -14 18 -14 7 0 19 -9
25 -19 10 -16 9 -20 -10 -26 -13 -4 -17 -8 -10 -11 10 -4 9 -9 -2 -21 -21 -20
-19 -51 5 -65 11 -7 20 -18 20 -24 0 -6 12 -17 28 -25 15 -8 29 -16 32 -19 3
-3 16 -11 30 -18 51 -25 85 -47 87 -57 1 -5 13 -24 26 -40 13 -17 30 -48 37
-70 33 -101 55 -151 74 -168 15 -13 20 -29 17 -53 -2 -25 1 -34 11 -32 7 2 12
-4 10 -14 -3 -21 10 -29 28 -18 11 7 11 12 2 23 -10 12 -10 21 0 43 12 28 98
121 98 107 0 -4 10 7 23 23 30 40 48 62 72 84 42 40 68 60 77 60 8 0 64 36 78
50 11 11 51 30 63 30 8 0 19 11 26 24 9 16 24 25 46 28 35 4 41 -8 15 -29 -13
-11 -11 -12 9 -13 18 0 21 -3 13 -13 -6 -7 -9 -22 -6 -34 3 -11 1 -24 -5 -27
-6 -4 -8 -20 -4 -36 5 -29 -9 -42 -22 -20 -12 19 -26 10 -20 -11 5 -15 4 -19
-4 -15 -7 5 -11 -4 -12 -26 0 -18 -3 -27 -6 -20 -2 6 -9 10 -13 7 -5 -3 -6
-13 -3 -22 4 -9 2 -14 -3 -10 -6 3 -16 2 -22 -2 -16 -10 -4 -44 13 -37 6 2 18
-4 25 -14 7 -10 20 -15 31 -13 11 3 19 1 19 -4 0 -15 59 -45 88 -43 48 3 63 0
61 -12 -4 -32 2 -48 19 -48 10 0 27 -7 38 -15 18 -12 24 -12 39 -1 15 11 23
11 46 -3 23 -13 33 -14 61 -3 50 18 108 12 156 -15 23 -13 42 -26 42 -29 0 -3
-4 -3 -9 1 -5 3 -12 -4 -16 -15 -3 -11 -11 -20 -16 -20 -11 0 -39 -25 -39 -34
0 -3 48 -41 107 -85 105 -79 106 -79 132 -63 14 9 30 22 34 29 4 7 22 20 39
29 l31 16 -34 20 c-84 51 -140 90 -136 94 3 3 52 -17 109 -44 100 -49 176 -77
135 -52 -37 24 6 96 70 117 15 5 27 14 26 19 -2 14 -351 116 -422 123 -43 5
-67 12 -76 24 -13 18 -55 16 -81 -5 -17 -13 -83 -6 -96 10 -9 10 -8 16 2 22
10 6 7 9 -11 12 -13 2 -23 9 -22 16 2 6 -5 12 -15 12 -10 0 -27 7 -38 15 -10
8 -14 15 -9 14 11 -2 36 6 71 23 15 7 28 7 42 -1 25 -13 35 -14 28 -2 -3 4 28
7 69 6 50 -2 74 1 72 8 -1 7 8 13 21 15 12 2 22 8 22 13 0 5 10 9 23 9 18 0
19 -2 7 -10 -12 -8 -12 -10 -1 -10 8 0 12 -3 8 -6 -3 -4 1 -14 10 -23 16 -15
15 -16 -11 -19 -27 -3 -27 -4 -10 -23 9 -10 14 -22 11 -25 -11 -11 45 -74 65
-74 11 0 89 -18 175 -41 198 -52 216 -50 276 29 23 32 49 71 57 87 18 37 30
49 53 58 14 5 34 37 42 67 10 39 19 50 41 50 16 0 24 6 24 18 0 9 20 55 43
102 44 85 65 142 88 234 7 27 24 63 39 80 26 31 42 72 55 136 4 19 16 47 26
62 11 14 19 31 19 37 0 6 11 36 25 67 14 31 25 62 25 70 0 7 5 25 11 41 13 31
12 27 34 193 8 63 24 151 36 195 21 82 21 100 0 235 -15 96 -45 180 -98 278
-42 78 -47 94 -47 154 -1 36 -4 69 -8 73 -7 8 8 56 21 65 25 17 100 136 129
204 55 130 72 192 73 274 2 86 2 86 73 196 28 44 50 82 49 85 -1 3 7 15 18 27
10 11 16 23 12 27 -3 4 1 15 9 24 8 10 37 63 63 118 56 116 58 120 85 202 11
34 31 86 44 115 84 183 130 438 80 438 -8 0 -14 8 -14 18 0 22 -55 50 -90 47
-164 -18 -303 -53 -353 -87 -19 -14 -36 -18 -54 -13 -21 5 -48 -5 -118 -41
-165 -86 -170 -89 -173 -112 -2 -13 -9 -21 -15 -20 -34 7 -198 -127 -213 -174
-6 -20 -4 -21 37 -14 71 11 135 17 119 10 -8 -4 -20 -13 -26 -20 -8 -10 -43
-15 -118 -18 -104 -5 -106 -4 -95 16 22 40 -1 29 -60 -31 -33 -34 -64 -61 -68
-61 -5 0 -17 -15 -27 -32 -11 -18 -36 -51 -56 -74 -41 -45 -202 -286 -270
-404 -24 -41 -67 -116 -97 -166 -29 -51 -53 -99 -53 -109 0 -9 -10 -25 -22
-35 -19 -15 -21 -21 -10 -31 10 -11 12 -9 12 10 0 12 4 20 10 16 10 -6 7 -20
-18 -75 -8 -19 -13 -36 -11 -37 2 -1 -5 -8 -15 -16 -12 -9 -17 -20 -13 -31 9
-22 37 -8 74 39 16 19 32 35 36 35 5 0 24 12 43 27 27 20 32 28 22 36 -10 7
-9 8 3 4 8 -3 59 20 112 51 52 32 109 65 126 74 33 18 41 38 16 38 -8 0 -15
-4 -15 -10 0 -5 -7 -7 -15 -4 -8 4 -15 1 -15 -5 0 -6 -7 -11 -15 -11 -8 0 -15
4 -15 9 0 5 7 14 15 21 22 18 18 30 -10 30 -14 0 -25 5 -25 10 0 6 5 10 10 10
6 0 10 8 11 18 0 14 2 14 9 -3 6 -14 9 -15 10 -5 2 31 122 91 136 69 7 -12 5
-14 -59 -63 -52 -39 -37 -52 18 -16 35 23 52 26 36 6 -7 -8 -14 -24 -16 -35
-4 -21 -3 -21 23 -7 15 9 70 29 122 47 52 17 108 38 124 46 l28 15 -28 15
c-39 21 -72 38 -116 58 -53 24 -51 49 2 40 40 -7 45 -3 41 31 -2 15 27 26 42
17 7 -4 4 5 -6 20 -10 15 -15 32 -11 38 3 6 -2 16 -12 24 -18 13 -17 14 7 20
15 4 35 6 45 5 11 -1 30 -2 43 -1 19 1 21 4 12 15 -10 11 -7 17 11 30 12 9 28
16 35 16 16 0 16 5 2 32 -11 20 -9 20 27 13 52 -11 84 -9 98 5 8 9 7 15 -7 24
-11 6 -41 25 -69 43 l-49 31 23 16 c12 9 35 16 51 16 25 0 28 2 17 15 -7 8
-27 15 -44 15 -17 0 -37 4 -45 9 -37 24 131 36 212 16 15 -4 27 -5 27 -2 0 22
-22 56 -39 62 -29 9 -27 28 2 20 12 -4 35 -22 50 -40 24 -29 32 -33 53 -25 13
5 24 7 24 5 0 -3 8 3 18 13 10 9 17 22 15 28 -8 22 36 22 60 0 22 -20 30 -34
56 -99 14 -35 15 -89 1 -67 -14 23 -23 4 -24 -48 -1 -34 4 -54 17 -66 16 -16
23 -36 12 -36 -2 0 -20 14 -40 31 -19 17 -35 27 -35 22 0 -5 4 -13 9 -19 14
-14 51 -83 51 -94 0 -6 -9 -10 -20 -10 -11 0 -20 4 -20 9 0 5 -25 22 -56 37
-31 15 -65 37 -75 48 -17 18 -19 18 -19 2 0 -10 6 -32 14 -49 28 -67 32 -83
25 -112 -4 -16 -7 -25 -8 -19 0 5 -28 28 -61 49 -33 21 -60 45 -60 52 0 7 -7
13 -15 13 -8 0 -37 14 -63 30 -71 43 -71 37 0 -22 34 -29 63 -59 66 -67 3 -8
0 -11 -7 -7 -18 11 -13 -25 6 -46 25 -28 24 -57 -1 -50 -20 5 -20 5 -4 -12 16
-16 22 -16 101 4 129 31 277 60 301 59 11 0 -33 -13 -99 -29 -121 -28 -268
-69 -316 -88 -22 -9 -26 -17 -28 -63 -1 -30 -4 -55 -6 -57 -2 -2 -16 5 -31 15
-26 17 -28 17 -21 0 8 -22 -4 -22 -34 1 -54 41 -80 45 -149 19 -60 -23 -77
-40 -79 -75 -1 -10 7 -12 28 -7 23 5 32 2 39 -12 5 -10 7 -24 5 -30 -3 -7 2
-13 11 -13 9 0 16 -4 16 -10 0 -5 -7 -10 -15 -10 -8 0 -15 -5 -15 -10 0 -6
-15 -17 -32 -25 -18 -8 -28 -14 -23 -15 6 0 3 -5 -5 -11 -12 -8 -10 -9 10 -5
14 3 33 6 43 6 10 0 16 3 14 8 -3 4 34 8 82 8 47 1 77 0 66 -3 -43 -9 -72 -25
-72 -39 0 -12 7 -14 27 -10 15 3 30 3 33 0 7 -8 -15 -88 -27 -96 -17 -11 0
-20 49 -25 48 -6 54 -13 30 -37 -18 -17 -18 -25 -3 -44 16 -18 -10 -41 -50
-46 -39 -5 -48 6 -22 29 26 24 17 35 -30 35 -34 0 -39 4 -49 31 -6 18 -16 29
-23 26 -20 -7 -54 13 -38 23 26 16 -1 31 -45 25 -41 -7 -42 -6 -42 19 0 15 5
26 13 26 8 0 14 5 14 10 0 6 -2 10 -5 10 -18 0 -197 -65 -252 -91 -62 -30 -65
-32 -44 -43 12 -7 18 -15 15 -19 -4 -4 0 -7 9 -7 9 0 17 -6 17 -14 0 -7 9 -16
20 -19 34 -9 26 -60 -14 -91 -43 -33 -53 -33 -32 -1 22 33 20 38 -9 31 -21 -5
-25 -2 -30 27 -8 40 -4 69 10 79 6 4 -3 8 -19 8 -25 0 -27 -2 -15 -17 13 -15
11 -16 -13 -10 -20 5 -43 -1 -87 -25 -74 -39 -157 -101 -154 -115 1 -6 -7 -19
-17 -28 -11 -10 -20 -24 -20 -32 0 -8 -8 -22 -17 -31 -16 -16 -15 -17 5 -20
13 -2 19 -8 15 -18 -7 -18 6 -18 27 1 9 8 32 18 51 21 l34 6 -50 -35 c-27 -19
-53 -33 -56 -31 -4 2 -9 -3 -13 -11 -7 -19 -8 -19 43 6 24 11 45 18 49 15 3
-3 0 -6 -8 -6 -10 0 -10 -3 -1 -14 10 -12 8 -16 -11 -22 -22 -6 -38 -21 -38
-35 0 -10 39 -18 45 -9 2 4 15 6 28 5 25 -3 50 12 59 36 3 8 24 21 47 29 22 7
43 21 46 31 4 11 20 22 36 26 16 5 30 13 31 18 1 6 13 19 27 30 41 31 54 45
47 52 -7 7 13 33 25 33 5 0 9 -7 9 -16 0 -24 25 -43 49 -37 11 3 21 2 21 -2 0
-12 -41 -65 -50 -65 -5 0 -20 -11 -34 -25 -28 -28 -46 -32 -46 -10 0 8 -4 15
-8 15 -13 0 -78 -35 -108 -59 l-29 -21 40 6 c22 3 54 10 70 15 17 4 47 11 67
14 21 3 50 16 65 28 39 32 111 59 116 43 3 -6 -5 -21 -16 -33 -18 -20 -18 -23
-4 -23 10 0 26 5 36 12 10 6 27 8 37 4 18 -8 18 -9 -3 -17 -27 -10 -30 -26 -5
-32 12 -3 11 -5 -6 -6 -13 0 -20 -6 -17 -11 3 -6 -6 -15 -21 -20 -19 -8 -29
-8 -34 0 -4 7 -23 8 -51 4 -41 -7 -43 -6 -29 11 14 16 12 17 -20 10 -52 -11
-78 -28 -110 -69 -13 -18 -13 -19 0 -11 18 11 130 13 130 3 0 -5 14 -8 31 -8
16 0 28 4 25 8 -3 5 13 9 35 10 32 2 39 -1 39 -15 0 -11 -3 -14 -8 -8 -5 7
-18 6 -41 -6 l-34 -16 33 -12 c48 -16 31 -23 -33 -13 -31 5 -62 5 -69 1 -9 -6
-5 -9 12 -11 14 -1 32 -2 40 -4 8 -1 21 -2 29 -3 11 -1 11 -4 1 -16 -10 -13
-9 -15 11 -15 13 0 29 -4 36 -8 7 -4 -20 -6 -59 -4 -47 3 -69 1 -64 -6 3 -6 0
-13 -6 -16 -9 -4 -8 -5 2 -5 55 4 73 -15 90 -97 l6 -30 -61 16 c-77 21 -92 29
-74 42 9 6 5 7 -12 2 -15 -3 -30 -1 -33 5 -4 6 -22 11 -40 11 -18 0 -45 9 -59
20 -14 11 -31 20 -39 20 -10 0 -10 2 1 9 9 6 -9 7 -49 4 -46 -5 -61 -3 -56 5
5 8 0 12 -13 12 -12 0 -21 5 -21 11 0 6 -7 9 -15 5 -8 -3 -15 -1 -15 4 0 18
-31 10 -56 -15 -14 -14 -33 -25 -44 -25 -17 0 -44 -19 -52 -37 -3 -9 -84 -63
-93 -63 -11 0 -4 29 8 34 6 3 3 5 -7 3 -19 -2 -28 -13 -47 -57 -5 -14 -21 -43
-34 -65 -14 -22 -27 -46 -31 -52 -3 -7 -12 -13 -20 -13 -8 0 -14 -5 -14 -10 0
-6 -15 -43 -34 -83 -47 -99 -55 -129 -59 -226 -3 -64 -8 -87 -21 -96 -13 -10
-14 -14 -3 -23 8 -7 12 -24 9 -43 -4 -26 -8 -30 -28 -26 -13 2 -24 0 -24 -5 0
-5 -6 -8 -12 -5 -7 2 -12 10 -11 16 2 6 -1 11 -6 11 -5 0 -11 6 -14 14 -3 8 1
13 11 12 11 -1 15 5 13 14 -2 8 -5 54 -6 103 -1 48 -4 89 -7 92 -7 7 3 65 11
65 4 0 7 17 8 38 0 20 5 48 10 62 6 14 7 26 2 28 -15 6 -10 22 6 22 13 0 20
18 16 43 0 4 3 7 9 7 5 0 7 7 3 16 -3 9 0 20 8 25 8 4 14 14 15 21 4 56 4 55
19 28 l14 -25 1 33 c0 22 5 32 15 32 15 0 19 15 15 58 -1 12 4 22 10 22 6 0 8
5 5 10 -3 6 -1 10 5 10 16 0 25 -30 13 -49 -6 -9 -7 -25 -2 -36 6 -17 8 -17 8
-2 1 9 6 17 11 17 6 0 10 8 10 18 0 22 40 49 50 33 4 -7 20 8 40 36 19 27 38
51 43 54 5 4 7 11 4 16 -4 5 1 20 10 33 18 26 25 60 12 60 -5 0 -4 11 1 24 5
15 5 27 -3 35 -8 8 -8 11 2 11 10 0 10 4 3 13 -11 13 0 51 17 62 16 9 13 25
-5 25 -10 0 -12 4 -7 13 4 6 9 29 10 50 1 21 8 48 15 60 13 21 24 87 14 87 -3
0 -21 -21 -41 -47 -34 -44 -36 -45 -29 -18 10 42 61 141 99 195 18 25 45 69
60 99 15 30 42 77 60 105 17 28 65 105 105 171 95 156 188 300 261 402 73 101
79 125 18 82 -16 -11 -29 -17 -29 -12 0 4 -7 -2 -15 -14 -10 -14 -22 -19 -35
-16 -19 5 -90 -31 -90 -46 0 -4 -11 -13 -25 -19 -14 -6 -25 -18 -25 -25 0 -8
-15 -29 -32 -48 -34 -35 -86 -49 -99 -28 -10 17 66 135 85 131 10 -2 18 7 22
25 3 15 7 33 9 40 5 15 -42 46 -50 34 -6 -12 -45 -10 -45 1 0 4 -7 8 -15 8
-10 0 -15 -10 -15 -34 0 -32 -2 -35 -42 -42 -24 -5 -49 -8 -55 -7 -7 0 -13 -4
-13 -9 0 -5 -9 -6 -20 -3 -14 4 -20 2 -20 -8 0 -11 -12 -8 -50 11 -59 29 -102
25 -93 -9 5 -17 2 -20 -13 -17 -12 2 -23 -5 -32 -21 -10 -20 -10 -27 4 -42 9
-10 13 -23 9 -29 -11 -18 -44 17 -38 41 4 13 0 19 -12 19 -13 0 -16 -6 -11
-24 4 -15 0 -28 -8 -35 -17 -14 -24 -5 -21 27 2 25 -1 27 -19 9 -7 -7 -11 -25
-9 -40 4 -28 -11 -38 -20 -13 -3 7 -15 16 -26 19 -24 6 -27 -7 -11 -49 9 -21
7 -29 -7 -40 -11 -8 -22 -9 -27 -3 -6 5 -21 9 -34 9 -21 0 -24 4 -20 25 3 15
1 25 -7 25 -13 0 -15 -64 -2 -76 11 -11 8 -36 -3 -29 -6 4 -19 -4 -29 -17 -11
-13 -15 -25 -9 -29 5 -3 11 -26 13 -50 2 -24 7 -42 11 -39 5 3 8 8 7 12 -3 7
36 2 44 -5 2 -2 -1 -17 -7 -32 -9 -22 -7 -31 6 -46 10 -11 12 -19 6 -19 -7 0
-12 -9 -12 -20 0 -11 5 -20 10 -20 6 0 10 7 10 16 0 8 4 13 9 9 6 -3 6 -18 0
-37 -4 -17 -6 -42 -3 -55 4 -12 2 -23 -2 -23 -13 1 -54 37 -54 48 0 5 -7 15
-15 22 -22 19 -19 73 5 88 25 15 17 36 -8 23 -9 -5 -25 -12 -35 -15 -14 -5
-15 -9 -6 -24 10 -15 9 -26 -5 -52 -9 -18 -16 -44 -16 -58 0 -21 3 -23 25 -18
22 6 26 3 31 -24 4 -16 10 -30 15 -30 5 0 9 -7 9 -15 0 -8 -4 -15 -9 -15 -5 0
-11 7 -15 15 -12 33 -66 10 -66 -28 0 -36 -24 -10 -43 48 -17 51 -18 60 -5 69
15 11 13 36 -2 36 -13 0 -22 -77 -11 -97 5 -11 6 -25 1 -33 -7 -12 -10 -12
-16 3 -3 9 -10 17 -16 17 -17 0 25 -58 50 -69 16 -8 22 -17 18 -27 -3 -9 -6
-20 -6 -25 0 -18 -17 -9 -30 16 -7 14 -15 23 -17 22 -2 -2 8 -25 22 -51 29
-55 31 -63 8 -45 -14 13 -16 11 -10 -11 3 -14 9 -35 12 -47 10 -31 -13 -30
-25 1 -11 30 -53 62 -59 45 -2 -7 6 -20 19 -29 15 -12 24 -31 27 -63 3 -26 9
-47 14 -47 4 0 7 -16 6 -35 -1 -19 -5 -35 -9 -35 -5 0 -8 -10 -8 -22 0 -17 -3
-19 -9 -10 -4 8 -7 29 -5 48 1 19 -1 34 -6 34 -5 0 -12 10 -16 22 -8 28 -43
57 -68 58 -14 0 -17 5 -12 23 3 12 6 27 6 34 0 6 9 15 21 18 17 6 20 13 15 36
-3 16 -1 29 4 29 6 0 10 -3 10 -7 0 -5 11 -9 25 -9 30 -2 31 3 6 25 -21 18
-30 59 -17 79 5 8 4 18 -3 25 -16 16 -14 27 6 27 28 0 5 13 -27 15 -20 2 -30
-2 -30 -11 0 -17 -2 -17 -35 -2 -26 12 -34 42 -13 54 7 5 8 2 3 -7 -6 -11 -5
-12 5 -2 10 10 11 15 1 27 -8 10 -9 20 -3 33 32 61 46 113 30 113 -4 0 -8 -9
-8 -19 0 -17 -6 -19 -45 -16 -36 2 -45 0 -46 -14 0 -11 -2 -12 -6 -3 -3 7 -15
17 -28 22 -20 8 -21 12 -15 57 4 26 6 51 3 55 -2 4 1 17 8 30 9 18 9 24 -5 34
-17 12 -14 55 5 80 5 6 3 19 -6 30 -8 10 -15 27 -15 37 0 9 -4 17 -8 17 -4 0
-6 -15 -4 -33 2 -22 -2 -39 -12 -50 -18 -18 -21 -43 -6 -52 15 -9 12 -25 -5
-25 -12 0 -13 -5 -4 -26 5 -15 6 -36 2 -48 -4 -11 -6 -27 -5 -33 2 -7 -5 -13
-14 -13 -12 0 -15 -7 -12 -29 l4 -30 -31 14 c-18 7 -38 9 -45 5 -7 -5 -19 -6
-27 -3 -7 3 -13 -1 -13 -10 0 -18 45 -28 59 -14 16 16 20 6 14 -43 -5 -42 -7
-45 -36 -46 -18 -1 -37 5 -45 15 -11 14 -12 14 -10 -4 2 -11 13 -24 25 -30 17
-9 19 -13 8 -21 -7 -5 -15 -28 -18 -51 -5 -40 -4 -43 17 -37 24 6 58 -24 62
-54 1 -9 5 -26 8 -37 4 -11 2 -27 -4 -35 -9 -13 -11 -13 -19 0 -6 8 -13 11
-17 8 -3 -4 8 -21 25 -38 17 -17 34 -42 37 -56 3 -13 9 -24 13 -24 3 0 15 -16
26 -36 14 -27 16 -37 7 -43 -9 -5 -7 -12 7 -25 18 -16 18 -19 3 -37 -24 -28
-49 -24 -55 8 -3 16 0 31 6 35 7 4 -1 18 -22 37 -18 17 -30 35 -26 40 3 6 -6
13 -20 17 -14 3 -25 13 -25 21 0 9 -8 34 -19 57 -29 65 -43 108 -48 149 -3 22
-10 37 -19 37 -14 0 -44 60 -44 90 0 10 -7 23 -15 30 -8 7 -15 25 -15 40 0 30
34 68 45 51 3 -6 11 -11 16 -11 6 0 3 7 -5 16 -18 17 -22 39 -6 29 6 -3 11 6
11 22 1 15 2 39 3 53 1 15 10 29 24 36 25 12 30 31 6 26 -22 -5 -17 39 5 45
12 3 21 16 23 34 6 37 -9 49 -18 15 -3 -13 -15 -26 -26 -29 -16 -5 -19 -2 -15
13 3 11 -3 26 -14 36 -22 20 -24 45 -7 62 9 9 8 12 -4 12 -9 0 -18 -7 -22 -15
-9 -25 -29 -17 -24 9 4 22 1 25 -39 31 -26 4 -43 11 -43 20 0 7 -7 16 -16 19
-14 5 -16 1 -10 -25 5 -25 3 -30 -12 -27 -13 3 -16 12 -14 40 3 43 -19 56 -54
33 -25 -16 -45 -2 -26 17 8 8 8 17 1 30 -5 10 -7 23 -4 28 3 6 -1 10 -10 10
-8 0 -20 11 -26 24 -11 22 -12 23 -52 9 -59 -20 -146 -12 -187 17 l-33 23 8
-69 c4 -38 4 -66 0 -62 -4 4 -9 15 -10 25 -6 63 -45 155 -62 148 -7 -2 -13 0
-13 4 0 5 -23 36 -50 69 -37 44 -63 66 -98 79 -26 10 -49 18 -52 18 -10 0 -75
29 -80 35 -23 29 -179 157 -184 152 -4 -3 -4 2 0 13 6 15 4 17 -10 12 -11 -4
-24 0 -34 10 -16 16 -15 16 7 10 l25 -6 -25 23 c-13 13 -28 21 -33 18 -5 -3
-6 0 -2 6 4 7 -2 22 -13 34 -12 12 -21 18 -22 12 -1 -5 -4 2 -9 16 l-7 25 -11
-25 -11 -25 0 23 c-1 18 -5 22 -20 17 -14 -4 -28 8 -60 49 -22 30 -41 60 -41
66 0 6 -4 9 -9 5 -5 -3 -12 -1 -15 4 -4 5 -2 12 4 16 5 3 10 12 10 18 0 7 -4
6 -10 -3 -8 -12 -10 -12 -16 3 -3 9 -12 17 -19 17 -11 0 -60 49 -107 108 -10
12 -27 22 -38 22 -11 0 -20 5 -20 11 0 6 -6 9 -14 6 -8 -3 -16 -3 -18 1 -6 13
-68 41 -68 30 0 -6 -7 -7 -17 -3 -10 4 -34 8 -53 10 -19 2 -50 7 -69 11 -24 5
-32 3 -27 -5z m186 -41 c0 -5 -10 -10 -22 -10 -19 0 -20 2 -8 10 19 13 30 13
30 0z m117 -226 c-3 -3 -12 -4 -19 -1 -8 3 -5 6 6 6 11 1 17 -2 13 -5z m133
-34 c8 -5 11 -10 5 -10 -5 0 -17 5 -25 10 -8 5 -10 10 -5 10 6 0 17 -5 25 -10z
m5 -43 c12 -6 15 -12 8 -14 -6 -2 -29 5 -50 16 -35 20 -36 21 -8 15 17 -4 39
-11 50 -17z m4333 -156 c3 -9 14 -22 24 -29 10 -7 18 -24 18 -36 0 -19 -5 -23
-26 -23 -16 0 -36 -12 -54 -32 -17 -18 -23 -31 -16 -31 8 0 19 -7 26 -15 10
-13 9 -15 -10 -15 -13 0 -31 6 -39 14 -9 7 -34 17 -56 21 l-39 7 52 -47 c29
-26 51 -50 48 -52 -2 -2 -29 9 -60 26 -38 20 -58 26 -63 18 -3 -6 -1 -13 5
-15 7 -2 12 -9 12 -17 0 -7 10 -19 23 -28 12 -8 19 -18 15 -22 -4 -4 -20 3
-35 15 l-28 22 -3 -36 c-2 -20 -6 -36 -10 -36 -13 0 -40 89 -28 93 6 3 1 15
-13 31 -24 26 -24 26 -5 40 20 15 21 15 -58 31 -30 5 -23 -40 8 -53 14 -7 22
-17 19 -22 -8 -14 -46 -2 -61 18 -8 12 -21 13 -55 8 -24 -4 -62 -8 -84 -10
-22 -1 -52 -6 -67 -10 -43 -13 -34 11 10 24 56 19 102 41 102 51 0 5 -12 7
-27 4 -27 -6 -27 -6 -9 9 11 9 31 16 45 16 14 0 37 12 53 27 27 25 30 26 78
15 27 -6 67 -23 87 -36 21 -14 52 -28 68 -32 l30 -7 -20 23 c-26 28 -62 47
-127 64 l-53 15 62 0 c34 1 74 -4 88 -11 30 -13 43 -5 25 17 -19 23 1 18 42
-10 47 -32 58 -32 28 1 -18 18 -21 27 -12 33 20 12 83 0 90 -18z m-359 -210
c3 -5 19 -11 34 -13 15 -1 27 -6 27 -10 0 -12 34 -45 42 -41 3 2 8 -5 10 -14
5 -24 -31 -42 -57 -30 -11 5 -35 27 -52 49 -40 48 -40 46 -8 -24 13 -29 21
-54 16 -56 -4 -1 -32 13 -61 33 -43 29 -61 35 -106 35 -30 0 -54 4 -54 8 0 13
68 34 108 32 57 -3 59 -2 27 24 l-30 25 49 -4 c27 -2 52 -8 55 -14z m-3455
-113 c8 -15 13 -28 11 -28 -12 0 -65 61 -65 76 0 16 1 16 20 -1 11 -10 27 -31
34 -47z m-317 46 c-3 -3 -12 -4 -19 -1 -8 3 -5 6 6 6 11 1 17 -2 13 -5z m3628
-72 c38 -36 46 -59 18 -46 -10 4 -37 9 -60 12 -24 2 -43 8 -43 12 0 7 -86 25
-103 22 -4 -1 -10 6 -14 15 -4 10 -11 22 -17 26 -6 5 0 6 14 3 14 -3 31 -2 38
3 7 4 40 3 72 -3 45 -8 68 -19 95 -44z m-175 -22 c0 -5 5 -9 12 -7 6 1 14 -6
16 -15 2 -10 -2 -18 -9 -18 -12 0 -38 29 -39 43 0 4 5 7 10 7 6 0 10 -4 10
-10z m-3042 -40 c20 -23 52 -56 70 -76 37 -40 40 -54 12 -54 -11 0 -20 -5 -20
-11 0 -5 -4 -7 -10 -4 -15 9 -12 25 5 25 8 0 15 7 15 15 0 17 -16 20 -25 5
-10 -17 -23 -11 -29 13 -3 13 -24 44 -46 69 -22 26 -40 49 -40 52 0 19 35 1
68 -34z m3412 20 c0 -5 -4 -10 -10 -10 -5 0 -10 5 -10 10 0 6 5 10 10 10 6 0
10 -4 10 -10z m-3820 -60 c0 -5 -20 -10 -44 -10 -24 0 -53 -3 -63 -6 -13 -5
-15 -4 -8 4 6 6 30 12 55 15 25 2 48 4 53 5 4 1 7 -2 7 -8z m75 1 c-15 -14
-88 -51 -93 -47 -10 11 46 54 73 55 17 1 25 -3 20 -8z m3045 -21 c0 -5 -11
-12 -25 -16 -36 -9 -32 -34 6 -34 24 0 30 -4 27 -17 -5 -26 -67 -19 -91 9 -18
21 -17 22 11 34 16 6 33 17 36 23 9 14 36 15 36 1z m180 -30 c37 -24 -51 -38
-125 -20 -21 5 -25 9 -15 13 40 16 120 20 140 7z m-777 -105 c-3 -8 -11 -15
-19 -15 -12 0 -12 4 -2 19 13 22 30 18 21 -4z m-2023 5 c0 -5 -4 -10 -10 -10
-5 0 -10 5 -10 10 0 6 5 10 10 10 6 0 10 -4 10 -10z m-397 -7 c-7 -2 -19 -2
-25 0 -7 3 -2 5 12 5 14 0 19 -2 13 -5z m7 -33 c-8 -5 -22 -9 -30 -9 -10 0 -8
3 5 9 27 12 43 12 25 0z m580 -52 c7 -29 16 -57 20 -63 7 -11 14 -92 7 -85 -3
3 -14 41 -25 85 -11 44 -23 88 -27 98 -4 9 -3 17 3 17 5 0 16 -24 22 -52z
m1590 48 c0 -3 -4 -8 -10 -11 -5 -3 -10 -1 -10 4 0 6 5 11 10 11 6 0 10 -2 10
-4z m500 -5 c0 -6 -4 -13 -10 -16 -5 -3 -10 1 -10 9 0 9 5 16 10 16 6 0 10 -4
10 -9z m-1590 -81 c0 -5 -5 -10 -11 -10 -5 0 -7 5 -4 10 3 6 8 10 11 10 2 0 4
-4 4 -10z m-620 -38 c0 -15 -2 -15 -10 -2 -13 20 -13 33 0 25 6 -3 10 -14 10
-23z m2130 9 c0 -6 -4 -12 -9 -15 -8 -5 -74 -113 -112 -181 -9 -16 -39 -68
-67 -115 -29 -47 -52 -90 -52 -97 0 -7 -9 -28 -19 -47 -11 -19 -25 -54 -31
-78 -7 -24 -19 -51 -27 -60 -8 -9 -12 -21 -9 -27 4 -6 -2 -18 -14 -28 -11 -10
-20 -21 -20 -25 0 -5 -15 -30 -34 -57 -19 -26 -44 -68 -57 -92 -36 -70 -32
-32 6 65 19 49 35 103 35 120 0 46 11 76 26 76 8 0 14 -8 14 -17 0 -14 2 -15
9 -4 5 8 5 27 0 45 -5 17 -6 40 -3 51 23 82 49 103 38 30 -11 -79 6 -58 97
112 15 29 41 73 58 98 17 25 33 56 37 69 3 13 17 34 30 47 13 12 24 28 24 35
0 7 10 25 23 41 13 15 26 36 30 46 7 18 27 24 27 8z m-2090 -82 c0 -6 -4 -7
-10 -4 -5 3 -10 11 -10 16 0 6 5 7 10 4 6 -3 10 -11 10 -16z m3060 11 c0 -5
-2 -10 -4 -10 -3 0 -8 5 -11 10 -3 6 -1 10 4 10 6 0 11 -4 11 -10z m-4073 -26
c-3 -3 -12 -4 -19 -1 -8 3 -5 6 6 6 11 1 17 -2 13 -5z m1263 2 c0 -3 -4 -8
-10 -11 -5 -3 -10 -1 -10 4 0 6 5 11 10 11 6 0 10 -2 10 -4z m-230 -41 c0 -5
-5 -3 -10 5 -5 8 -10 20 -10 25 0 6 5 3 10 -5 5 -8 10 -19 10 -25z m3313 28
c-7 -2 -19 -2 -25 0 -7 3 -2 5 12 5 14 0 19 -2 13 -5z m-3184 -73 c0 -8 -7 -1
-14 15 -8 17 -14 37 -14 45 0 8 7 2 14 -15 8 -16 14 -37 14 -45z m1624 -13
c-3 -15 -9 -27 -14 -27 -11 0 -12 51 -2 76 6 16 7 16 14 -2 4 -11 5 -32 2 -47z
m-383 33 c6 -11 8 -20 6 -20 -3 0 -10 9 -16 20 -6 11 -8 20 -6 20 3 0 10 -9
16 -20z m-1269 -148 c5 -2 9 -9 9 -16 0 -14 76 -166 90 -180 7 -7 13 -7 20 0
9 9 -12 86 -40 149 -13 30 -22 65 -16 65 10 0 63 -107 101 -208 22 -58 46
-107 53 -110 8 -2 5 12 -8 43 -25 57 -25 67 -2 63 9 -2 16 3 14 10 -1 6 -3 17
-5 23 -1 6 3 13 9 15 10 4 44 -61 44 -84 0 -18 -18 -14 -29 6 -9 14 -10 11 -9
-15 1 -18 6 -33 10 -33 14 0 8 -28 -7 -34 -14 -5 -16 -30 -4 -51 4 -5 9 -23
12 -40 4 -18 -6 -5 -26 35 -34 69 -88 153 -93 147 -5 -5 27 -100 37 -111 15
-17 11 -46 -6 -40 -8 4 -15 12 -15 18 0 7 -9 22 -20 34 -11 12 -23 35 -26 51
-4 16 -12 32 -20 35 -8 3 -14 16 -14 29 0 13 -14 51 -30 83 -33 65 -100 214
-100 223 0 3 14 -19 32 -49 17 -30 35 -56 39 -58z m1339 94 c0 -3 -4 -8 -10
-11 -5 -3 -10 -1 -10 4 0 6 5 11 10 11 6 0 10 -2 10 -4z m-1280 -32 c0 -14 -3
-14 -15 -4 -8 7 -15 14 -15 16 0 2 7 4 15 4 8 0 15 -7 15 -16z m1227 -19 c4
-30 -13 -33 -22 -5 -7 21 3 46 13 35 3 -3 8 -17 9 -30z m-873 -8 c14 -10 16
-21 11 -50 -8 -39 -24 -47 -45 -22 -10 12 -10 15 1 15 11 0 11 2 -1 10 -13 9
-13 12 2 24 13 10 15 15 6 24 -16 16 4 15 26 -1z m906 -52 c0 -8 -4 -15 -10
-15 -5 0 -7 7 -4 15 4 8 8 15 10 15 2 0 4 -7 4 -15z m-480 -45 c-29 -25 -31
-25 -28 3 6 39 17 49 35 32 14 -14 13 -18 -7 -35z m539 10 c6 0 11 -4 11 -10
0 -5 -4 -10 -10 -10 -5 0 -10 -7 -10 -15 0 -19 -24 -20 -39 -1 -8 10 -9 21 0
42 10 27 12 28 23 12 7 -10 18 -18 25 -18z m-598 -23 c-17 -17 -24 -1 -9 22
11 18 14 19 16 5 2 -9 -1 -21 -7 -27z m-1136 13 c3 -5 1 -10 -4 -10 -6 0 -11
5 -11 10 0 6 2 10 4 10 3 0 8 -4 11 -10z m-50 -8 c15 -10 35 -72 24 -72 -9 0
-49 59 -49 73 0 9 12 9 25 -1z m88 -26 c7 -19 0 -25 -23 -19 -11 3 -16 11 -13
19 7 18 29 18 36 0z m1109 -16 c-6 -16 -11 -20 -16 -11 -4 6 -2 19 5 27 16 20
21 12 11 -16z m-990 -7 c0 -16 1 -35 0 -43 0 -8 6 -39 14 -69 10 -41 11 -57 2
-62 -7 -4 -8 -14 -3 -25 5 -11 7 -23 6 -28 -1 -4 4 -14 10 -22 7 -8 9 -17 6
-20 -10 -10 -47 16 -61 45 -8 15 -27 36 -41 45 -26 17 -26 17 -22 -8 1 -14 11
-34 21 -45 16 -17 16 -22 5 -34 -17 -16 -39 -11 -39 8 0 8 -4 17 -10 20 -6 4
-7 -1 -3 -12 3 -10 -12 -1 -37 22 -28 26 -37 31 -27 15 19 -27 22 -44 7 -35
-13 8 -13 -1 1 -26 6 -11 8 -25 6 -32 -2 -7 -11 2 -19 18 -8 17 -13 36 -10 44
3 10 0 12 -11 8 -10 -4 -18 3 -23 21 -12 43 -11 46 21 47 26 0 30 4 28 28 -2
24 1 26 21 21 16 -4 25 0 30 11 3 9 10 13 16 10 9 -6 15 30 12 75 -1 23 21 30
45 15 30 -20 33 -19 33 10 0 34 20 32 22 -2z m658 2 c0 -36 1 -39 11 -52 6 -7
6 -13 1 -17 -15 -9 -35 22 -39 60 -3 25 0 34 12 34 9 0 15 -9 15 -25z m-975 5
c3 -5 -1 -10 -9 -10 -9 0 -16 5 -16 10 0 6 4 10 9 10 6 0 13 -4 16 -10z m1191
-62 c-5 -4 -13 -5 -17 -2 -4 2 -11 0 -14 -6 -5 -8 -11 -7 -21 1 -19 15 -18 21
7 48 l21 23 18 -29 c11 -18 13 -30 6 -35z m854 54 c0 -13 -12 -22 -22 -16 -10
6 -1 24 13 24 5 0 9 -4 9 -8z m-2080 -54 c0 -4 -4 -8 -8 -8 -15 0 -32 24 -32
44 0 18 1 17 20 -4 11 -13 20 -27 20 -32z m1412 37 c0 -5 -5 -11 -11 -13 -6
-2 -11 4 -11 13 0 9 5 15 11 13 6 -2 11 -8 11 -13z m-442 -15 c0 -5 -2 -10 -4
-10 -3 0 -8 5 -11 10 -3 6 -1 10 4 10 6 0 11 -4 11 -10z m-100 -40 c0 -5 -7
-10 -16 -10 -8 0 -12 5 -9 10 3 6 10 10 16 10 5 0 9 -4 9 -10z m983 -37 c9
-20 13 -41 9 -47 -3 -6 -5 -21 -3 -33 1 -13 0 -23 -3 -23 -11 0 -38 71 -32 86
4 9 0 27 -8 39 -14 21 -14 22 3 18 9 -2 25 -21 34 -40z m-1786 -3 c10 -27 9
-30 -9 -30 -19 0 -47 25 -48 42 0 5 12 11 40 17 3 0 11 -12 17 -29z m2000 10
c-2 -30 -27 -34 -27 -5 0 15 6 25 14 25 9 0 14 -9 13 -20z m1170 14 c-3 -3
-12 -4 -19 -1 -8 3 -5 6 6 6 11 1 17 -2 13 -5z m-3077 -24 c0 -5 -2 -10 -4
-10 -3 0 -8 5 -11 10 -3 6 -1 10 4 10 6 0 11 -4 11 -10z m855 -20 c3 -5 1 -10
-4 -10 -6 0 -11 5 -11 10 0 6 2 10 4 10 3 0 8 -4 11 -10z m485 0 c0 -5 7 -10
15 -10 8 0 15 -2 15 -4 0 -2 3 -13 6 -23 6 -16 5 -16 -10 2 -10 11 -15 14 -11
8 7 -14 -4 -17 -29 -7 -20 8 -21 44 -1 44 8 0 15 -4 15 -10z m480 -12 c0 -16
-3 -19 -11 -11 -6 6 -8 16 -5 22 11 17 16 13 16 -11z m-35 -13 c0 -10 -6 -20
-12 -22 -8 -3 -13 5 -13 22 0 17 5 25 13 23 6 -3 12 -13 12 -23z m-2187 -18
c18 -18 29 -37 25 -42 -5 -4 2 -5 15 -2 18 4 22 1 21 -16 0 -12 -3 -16 -6 -9
-10 25 -20 11 -18 -25 1 -21 3 -38 5 -38 2 0 4 -17 5 -37 1 -23 -2 -35 -8 -31
-6 4 -7 1 -2 -8 5 -7 10 -21 10 -30 1 -16 0 -16 -22 -2 -13 9 -20 19 -15 22 5
3 8 18 6 34 -1 16 2 27 9 27 7 0 6 4 -3 10 -9 5 -17 5 -21 -1 -8 -14 -39 0
-39 18 0 13 3 13 15 3 11 -9 15 -9 15 -1 0 6 -11 16 -25 21 -14 5 -25 16 -25
24 0 12 6 13 32 5 17 -5 33 -7 35 -5 2 2 -8 18 -23 35 -14 18 -24 34 -21 38 4
3 2 14 -4 24 -15 29 4 22 39 -14z m1728 -14 c18 -24 17 -33 -1 -33 -8 0 -15
-4 -15 -10 0 -5 -7 -10 -15 -10 -8 0 -15 2 -15 4 0 2 -3 12 -6 21 -4 9 -3 15
2 14 27 -5 36 1 24 16 -10 12 -10 15 0 15 7 0 19 -8 26 -17z m-1582 -18 c3 -8
1 -15 -3 -15 -5 0 -11 7 -15 15 -3 8 -1 15 3 15 5 0 11 -7 15 -15z m2009 -21
c-5 -13 -8 -13 -24 2 -23 21 -15 38 11 24 12 -6 17 -16 13 -26z m-68 -9 c14
-14 25 -35 25 -45 0 -25 -17 -26 -23 -2 -4 13 -5 12 -6 -5 -1 -14 6 -24 19
-28 11 -3 20 -14 21 -23 1 -28 17 18 18 51 1 15 6 27 11 27 6 0 10 -32 10 -75
l0 -75 25 6 c15 4 25 2 25 -4 0 -6 -9 -12 -20 -14 -12 -2 -20 -7 -18 -13 1 -5
8 -9 15 -7 15 3 17 -10 3 -24 -6 -6 -6 -23 1 -48 7 -24 14 -35 18 -27 10 15
41 3 41 -16 0 -11 -7 -13 -25 -9 -32 8 -33 -9 -3 -41 17 -19 19 -23 5 -17 -10
3 -17 1 -17 -5 0 -6 7 -11 15 -11 18 0 20 -20 3 -21 -10 0 -10 -2 0 -6 17 -7
15 -50 -3 -57 -27 -10 -17 -27 13 -20 19 4 23 3 13 -4 -7 -5 -10 -15 -7 -21 4
-6 2 -11 -3 -11 -6 0 -11 -7 -11 -15 0 -9 -11 -21 -25 -27 -27 -12 -30 -19
-15 -34 6 -6 0 -11 -20 -12 -23 -2 -30 2 -30 15 0 10 -3 28 -6 41 -5 16 -2 22
9 22 9 0 21 9 27 20 6 11 7 20 1 20 -5 0 -12 -7 -15 -16 -8 -22 -26 -7 -26 22
0 18 -4 23 -12 17 -21 -12 -38 -12 -38 0 0 7 -4 18 -9 26 -12 18 -51 -3 -51
-28 0 -28 -12 -33 -27 -11 -11 16 -11 23 -1 40 12 19 10 24 -15 46 -15 13 -26
24 -23 24 3 0 1 11 -4 24 -10 28 1 80 18 82 7 1 15 2 18 3 4 0 -6 17 -20 36
-15 20 -24 35 -19 34 4 -1 19 -1 32 0 20 1 21 3 11 16 -7 8 -10 21 -7 30 4 8
1 17 -5 21 -7 4 -5 10 5 15 9 6 13 17 10 29 -4 14 0 20 11 20 11 0 14 5 10 12
-4 6 1 17 11 24 18 13 18 14 -1 36 -10 12 -14 18 -8 15 7 -4 17 0 24 8 16 19
15 19 45 -10z m-2185 -45 c22 -21 40 -46 40 -55 0 -8 5 -15 10 -15 6 0 10 -5
10 -11 0 -10 -27 11 -115 89 -10 9 -26 20 -35 24 -9 4 -3 7 17 7 25 1 42 -8
73 -39z m1240 -4 c0 -11 -19 -15 -25 -6 -3 5 1 10 9 10 9 0 16 -2 16 -4z
m1960 -36 c0 -5 -5 -10 -11 -10 -5 0 -7 5 -4 10 3 6 8 10 11 10 2 0 4 -4 4
-10z m-873 -52 c-3 -7 -5 -2 -5 12 0 14 2 19 5 13 2 -7 2 -19 0 -25z m-2137 7
c7 -8 9 -15 4 -15 -5 -1 1 -6 14 -13 22 -13 21 -13 -11 -13 -29 0 -33 3 -32
28 0 31 7 35 25 13z m405 -25 c8 -13 -5 -13 -25 0 -13 8 -13 10 2 10 9 0 20
-4 23 -10z m244 -58 c-10 -4 -59 28 -59 39 0 4 15 -2 34 -14 18 -12 30 -23 25
-25z m2430 1 c-7 -13 -22 -29 -32 -35 -14 -7 -17 -7 -13 1 4 6 0 11 -8 11 -18
0 -21 16 -5 26 8 4 7 9 -2 16 -11 7 -9 8 4 4 10 -3 28 1 40 9 27 19 35 3 16
-32z m241 7 c0 -5 -6 -10 -14 -10 -8 0 -18 5 -21 10 -3 6 3 10 14 10 12 0 21
-4 21 -10z m-809 -23 c-7 -7 -14 -8 -21 -1 -6 6 -2 10 12 11 16 2 18 -1 9 -10z
m-2527 -12 c3 -8 1 -15 -3 -15 -5 0 -11 7 -15 15 -3 8 -1 15 3 15 5 0 11 -7
15 -15z m141 -5 c-3 -5 14 -13 37 -19 37 -9 38 -10 8 -7 -54 6 -97 25 -81 36
16 10 43 2 36 -10z m1575 -25 c0 -7 -7 -15 -14 -18 -11 -4 -13 -1 -9 10 4 9
-1 19 -10 25 -10 5 -17 13 -17 19 0 5 11 2 25 -7 14 -9 25 -22 25 -29z m-2094
22 c17 -10 20 -17 13 -35 -5 -13 -14 -20 -20 -16 -8 4 -7 9 2 15 14 8 14 8
-37 24 -17 5 -10 25 9 25 7 -1 22 -6 33 -13z m3834 3 c0 -5 -9 -10 -20 -10
-11 0 -20 5 -20 10 0 6 9 10 20 10 11 0 20 -4 20 -10z m-3960 -10 c0 -5 -4
-10 -10 -10 -5 0 -10 5 -10 10 0 6 5 10 10 10 6 0 10 -4 10 -10z m610 -21 c9
-6 -2 -8 -30 -5 -25 3 -49 5 -53 5 -5 1 -5 5 -2 11 6 10 60 3 85 -11z m3210 8
c0 -8 -9 -22 -20 -32 -11 -10 -17 -21 -15 -25 3 -4 -4 -19 -15 -33 -11 -14
-20 -30 -20 -35 0 -12 -26 -23 -34 -15 -3 3 2 11 10 18 13 9 14 16 5 32 -9 18
-5 26 32 62 44 43 57 49 57 28z m-3950 -16 c0 -6 -4 -13 -10 -16 -5 -3 -10 1
-10 9 0 9 5 16 10 16 6 0 10 -4 10 -9z m3324 -6 c-4 -8 -11 -15 -16 -15 -6 0
-5 6 2 15 7 8 14 15 16 15 2 0 1 -7 -2 -15z m96 9 c0 -12 -29 -34 -46 -34 -16
0 -16 1 1 20 17 19 45 27 45 14z m-3457 -10 c11 -11 -3 -24 -18 -18 -8 4 -12
10 -9 15 6 11 18 12 27 3z m537 -27 c0 -4 -9 -3 -20 3 -11 6 -20 15 -20 20 0
6 9 5 20 -2 11 -7 20 -16 20 -21z m-603 -11 c-8 -20 -47 -21 -47 -1 0 9 6 12
15 9 10 -4 15 0 15 12 0 13 3 15 11 7 7 -7 9 -19 6 -27z m4212 15 l24 -18 -24
-16 c-45 -28 -70 -31 -76 -8 -3 12 -12 21 -19 21 -20 0 -17 28 4 33 37 10 68
6 91 -12z m-3711 -3 c-2 -7 3 -12 10 -10 6 1 12 -3 12 -9 0 -8 4 -8 14 0 10 8
16 9 21 1 3 -5 -1 -10 -9 -10 -9 0 -16 -4 -16 -9 0 -5 -9 -7 -20 -4 -11 3 -20
0 -20 -6 0 -6 5 -11 12 -11 6 0 9 -2 6 -5 -3 -3 -13 -3 -22 1 -13 5 -14 9 -5
20 14 17 14 18 -31 37 l-35 15 43 1 c28 1 41 -3 40 -11z m1962 -7 c5 -11 10
-28 10 -39 0 -23 -26 -37 -34 -19 -2 7 -5 2 -5 -11 -1 -30 -20 -64 -31 -57 -5
3 -14 -4 -20 -15 -6 -11 -16 -20 -22 -20 -9 0 -9 3 0 12 7 7 12 23 12 35 0 17
5 23 18 21 18 -3 20 7 6 57 -7 28 -7 29 10 12 24 -24 29 -21 21 13 -5 23 -3
30 9 30 8 0 20 -9 26 -19z m-2180 -11 c22 -11 51 -20 65 -20 21 0 25 -4 20
-19 -4 -15 0 -20 17 -23 15 -2 22 -9 20 -20 -2 -13 4 -18 23 -18 25 0 37 -20
13 -20 -15 -1 52 -39 67 -39 6 0 -6 9 -25 20 l-35 20 35 -6 c40 -7 80 -25 80
-36 0 -4 -7 -14 -15 -22 -12 -13 -11 -15 11 -20 29 -5 66 2 60 12 -2 3 31 6
74 6 58 0 76 -3 73 -12 -3 -7 -17 -13 -32 -14 -90 -2 -248 -9 -258 -10 -7 -2
-13 -6 -13 -11 0 -5 -6 -8 -12 -7 -36 4 -41 -1 -22 -23 19 -21 19 -21 -1 -16
-11 3 -29 9 -39 14 -13 5 -17 4 -13 -3 5 -8 -5 -8 -31 -2 -49 11 -52 11 -52
-4 0 -7 14 -18 32 -25 24 -9 29 -15 21 -23 -15 -15 -103 -23 -103 -9 0 5 6 10
13 10 8 0 7 4 -3 10 -8 5 -10 10 -5 11 6 1 -3 4 -20 8 l-30 7 31 17 c17 9 34
23 37 30 6 17 -54 87 -74 87 -22 0 -42 17 -35 29 7 11 53 -4 71 -24 14 -15 97
-46 104 -39 3 3 -2 10 -12 15 -25 15 -21 29 11 30 26 1 26 1 -6 10 -23 7 -38
7 -47 -1 -10 -8 -22 -4 -50 14 l-37 25 26 12 c14 7 26 19 26 27 0 8 6 12 15 8
8 -3 15 -1 15 4 0 6 -7 10 -15 10 -8 0 -15 5 -15 10 0 6 5 10 12 10 6 0 3 7
-8 15 -27 21 -10 18 36 -5z m1970 -31 c0 -6 -4 -7 -10 -4 -5 3 -10 11 -10 16
0 6 5 7 10 4 6 -3 10 -11 10 -16z m-190 -4 c14 -16 10 -18 -14 -9 -9 3 -16 10
-16 15 0 14 16 11 30 -6z m1330 -5 c-8 -5 -18 -6 -24 -3 -5 4 -1 10 10 13 24
9 34 2 14 -10z m-2945 -1 c12 -19 -5 -23 -22 -6 -16 16 -16 17 -1 17 9 0 20
-5 23 -11z m1765 7 c0 -3 -4 -8 -10 -11 -5 -3 -10 -1 -10 4 0 6 5 11 10 11 6
0 10 -2 10 -4z m-1545 -16 c3 -5 1 -10 -4 -10 -6 0 -11 5 -11 10 0 6 2 10 4
10 3 0 8 -4 11 -10z m-541 -21 c4 -4 -4 -6 -18 -6 -21 0 -24 2 -15 13 7 8 15
11 18 7 3 -4 10 -11 15 -14z m36 11 c0 -5 -5 -10 -11 -10 -5 0 -7 5 -4 10 3 6
8 10 11 10 2 0 4 -4 4 -10z m2084 -19 c7 -10 -22 -37 -30 -28 -9 8 3 37 15 37
5 0 12 -4 15 -9z m-2089 -11 c3 -5 -1 -10 -10 -10 -9 0 -13 5 -10 10 3 6 8 10
10 10 2 0 7 -4 10 -10z m395 -10 c12 -8 11 -10 -7 -10 -13 0 -23 5 -23 10 0
13 11 13 30 0z m1657 -43 c-6 -20 -27 -19 -27 2 0 14 5 19 15 14 9 -3 14 -10
12 -16z m59 -2 c-9 -10 -24 -14 -33 -11 -19 8 -8 22 22 28 28 6 30 2 11 -17z
m1574 16 c0 -12 -29 -23 -41 -15 -5 3 -7 10 -4 15 8 12 45 12 45 0z m110 -11
c0 -5 -5 -10 -11 -10 -5 0 -7 5 -4 10 3 6 8 10 11 10 2 0 4 -4 4 -10z m-3200
-20 c11 -7 -1 -9 -40 -9 -46 1 -50 3 -25 9 43 11 48 11 65 0z m3095 -9 c-3 -6
-16 -11 -28 -11 -21 0 -21 1 3 13 27 15 36 14 25 -2z m-3631 -42 c-3 -5 -1 -9
4 -9 6 0 8 -9 5 -21 -5 -17 -11 -20 -36 -15 -40 8 -46 15 -26 29 9 7 20 23 24
36 7 23 8 24 21 6 7 -10 11 -22 8 -26z m2049 17 c4 -10 1 -13 -9 -9 -15 6 -19
23 -5 23 5 0 11 -7 14 -14z m1757 -16 c0 -5 -4 -10 -10 -10 -5 0 -10 5 -10 10
0 6 5 10 10 10 6 0 10 -4 10 -10z m-3440 -30 c19 -11 26 -18 15 -16 -38 7 -65
18 -65 27 0 13 11 11 50 -11z m2337 -15 c-5 -32 -26 -65 -42 -65 -3 0 -3 10 0
23 22 75 52 106 42 42z m-2194 18 c-13 -2 -35 -2 -50 0 -16 2 -5 4 22 4 28 0
40 -2 28 -4z m-600 -20 c-2 -7 3 -13 11 -13 7 0 20 -7 27 -17 13 -15 10 -16
-31 -9 -25 4 -46 11 -48 16 -2 6 -21 10 -43 10 -50 0 -51 17 -1 23 59 6 87 3
85 -10z m2667 3 c0 -3 -4 -8 -10 -11 -5 -3 -10 -1 -10 4 0 6 5 11 10 11 6 0
10 -2 10 -4z m1317 -10 c4 -3 -3 -6 -15 -6 -11 0 -24 -4 -27 -10 -9 -15 -45
-12 -45 3 0 8 3 17 7 21 8 8 71 2 80 -8z m-3395 -8 c-8 -8 -17 -8 -34 0 -22
10 -21 11 12 11 26 1 31 -2 22 -11z m2533 -18 c3 -5 0 -10 -9 -10 -8 0 -23 -3
-33 -6 -16 -5 -16 -4 1 10 23 19 32 20 41 6z m820 -39 c-22 -21 -65 -37 -65
-24 0 4 17 15 38 25 49 21 50 21 27 -1z m-315 -16 c0 -12 -29 -3 -34 10 -4 13
-2 14 14 5 11 -6 20 -13 20 -15z m35 5 c-3 -5 -10 -10 -16 -10 -5 0 -9 5 -9
10 0 6 7 10 16 10 8 0 12 -4 9 -10z m-2496 -35 c19 4 31 3 31 -4 0 -5 -9 -11
-20 -13 -29 -4 -30 -22 -2 -26 12 -2 22 1 22 7 0 6 5 11 10 11 6 0 10 -7 10
-15 0 -8 -9 -15 -20 -15 -28 0 -25 -20 3 -21 17 -1 18 -2 4 -6 -9 -2 -15 -8
-12 -12 2 -5 -12 -7 -33 -6 -90 7 -146 36 -109 57 10 5 15 13 12 19 -9 14 -35
11 -35 -5 0 -23 -15 -27 -48 -13 -23 10 -27 15 -17 24 13 12 87 11 116 -1 21
-9 35 12 20 27 -22 22 -10 30 13 8 19 -18 31 -21 55 -16z m2486 5 c3 -5 2 -10
-4 -10 -5 0 -13 5 -16 10 -3 6 -2 10 4 10 5 0 13 -4 16 -10z m-3605 -10 c0 -5
-5 -10 -11 -10 -5 0 -7 5 -4 10 3 6 8 10 11 10 2 0 4 -4 4 -10z m3860 -10 c0
-5 -7 -10 -15 -10 -8 0 -15 5 -15 10 0 6 7 10 15 10 8 0 15 -4 15 -10z m-3754
-31 c2 -23 -1 -25 -23 -21 -21 4 -25 2 -20 -11 7 -18 -14 -27 -53 -22 -14 2
-28 4 -32 4 -5 1 -8 6 -8 11 0 6 16 10 36 10 21 0 33 4 29 10 -3 6 3 10 14 10
12 0 21 5 21 10 0 6 -6 10 -14 10 -8 0 -18 5 -21 11 -5 7 6 9 30 7 32 -3 38
-7 41 -29z m-166 1 c0 -5 -5 -10 -11 -10 -5 0 -7 5 -4 10 3 6 8 10 11 10 2 0
4 -4 4 -10z m1556 -64 c6 -12 12 -44 13 -71 2 -55 -19 -165 -31 -165 -4 0 -8
-7 -8 -15 0 -8 -4 -15 -10 -15 -5 0 -10 -7 -10 -15 0 -22 -70 -85 -118 -106
-53 -23 -139 -25 -209 -4 -57 17 -149 77 -145 94 1 6 -3 11 -8 11 -16 0 -33
51 -21 63 6 6 23 -4 48 -28 45 -44 102 -75 138 -75 14 0 25 -4 25 -9 0 -5 9
-7 20 -4 11 3 20 9 20 14 0 5 9 9 20 9 21 0 69 26 82 45 4 5 8 6 8 1 0 -5 10
2 23 16 40 43 77 106 89 153 7 25 16 45 21 45 6 0 7 21 3 48 -3 27 -3 51 0 55
8 7 34 -18 50 -47z m881 -2 c-9 -9 -28 6 -21 18 4 6 10 6 17 -1 6 -6 8 -13 4
-17z m-2243 -19 c3 -8 -3 -17 -14 -20 -10 -3 -22 -14 -25 -25 -3 -10 -12 -21
-20 -24 -16 -6 -45 2 -45 13 0 3 -39 7 -86 8 -86 1 -113 11 -99 33 5 8 22 10
50 6 33 -4 44 -2 49 9 3 8 13 15 23 15 17 -1 17 -1 -1 -15 -33 -25 -9 -38 62
-32 64 6 86 19 77 44 -2 7 2 10 10 7 7 -3 16 -12 19 -19z m33 19 c-3 -3 -12
-4 -19 -1 -8 3 -5 6 6 6 11 1 17 -2 13 -5z m2763 -44 c0 -4 -12 -13 -27 -18
-25 -9 -25 -11 -6 -11 12 -1 25 -6 28 -11 4 -6 1 -9 -7 -8 -7 2 -12 -3 -10 -9
2 -13 -25 -17 -51 -7 -13 5 -13 9 -2 31 20 38 75 62 75 33z m-571 -17 c-3 -20
2 -24 17 -12 15 12 16 11 9 -11 -11 -36 -15 -38 -36 -11 -16 19 -17 26 -7 32
16 11 18 11 17 2z m-2505 -30 l29 -23 -32 -6 c-17 -4 -28 -10 -25 -15 6 -11
-8 -12 -31 -3 -13 5 -14 8 -3 15 10 7 9 9 -4 9 -10 0 -18 5 -18 10 0 6 5 10
11 10 6 0 9 6 6 13 -8 21 36 14 67 -10z m291 -23 c-3 -5 -10 -10 -16 -10 -5 0
-9 5 -9 10 0 6 7 10 16 10 8 0 12 -4 9 -10z m3156 -10 c1 -5 2 -14 3 -19 0 -5
4 -13 9 -17 11 -12 8 -68 -7 -128 -38 -145 -160 -236 -315 -236 -75 0 -101 6
-101 23 0 6 3 7 6 4 4 -4 15 2 24 13 9 10 39 24 66 30 27 6 65 16 84 22 38 13
130 94 130 115 0 7 3 13 8 13 10 0 36 62 57 133 15 51 33 74 36 47z m261 -17
c18 -3 34 -15 40 -29 11 -24 30 -33 26 -12 -3 10 20 13 63 9 6 -1 8 -10 5 -21
-3 -11 -9 -29 -12 -40 -3 -13 -1 -20 9 -20 8 0 20 -6 26 -13 8 -11 5 -16 -15
-26 -19 -8 -24 -8 -18 1 5 8 2 9 -9 5 -9 -3 -19 -2 -22 3 -3 4 0 10 7 12 18 6
-10 33 -42 42 -14 3 -19 3 -12 0 17 -8 -24 -44 -50 -44 -10 0 -18 -4 -18 -10
0 -5 16 -10 35 -10 24 0 35 -5 35 -15 0 -8 -7 -15 -15 -15 -21 0 -19 -20 3
-21 16 -1 16 -2 0 -6 -22 -6 -23 -19 -2 -31 24 -13 8 -35 -16 -22 -25 13 -28
13 -26 -6 0 -10 -8 -18 -24 -20 -46 -8 -54 -13 -40 -29 10 -12 9 -15 -9 -15
-23 0 -27 -10 -10 -27 8 -8 5 -13 -11 -18 -12 -4 -41 -20 -65 -36 -24 -16 -49
-29 -56 -29 -12 0 -12 -2 -1 -9 10 -6 7 -10 -12 -15 -15 -4 -24 -11 -21 -15 9
-16 -26 -42 -48 -35 -16 5 -19 3 -14 -10 6 -16 -4 -22 -17 -9 -14 15 -46 12
-58 -5 -7 -10 -22 -24 -33 -30 -11 -6 -14 -12 -7 -12 11 0 11 -3 -1 -14 -8 -8
-25 -12 -43 -9 -28 5 -28 5 -9 -11 19 -15 19 -15 -12 -10 -38 7 -86 -3 -78
-16 3 -5 1 -12 -5 -15 -8 -5 -7 -11 1 -21 13 -16 39 -19 39 -4 0 6 5 10 10 10
20 0 9 -20 -14 -26 -16 -4 -34 0 -48 10 -30 21 -49 21 -41 -1 6 -17 6 -17 -10
-1 -9 9 -32 16 -52 16 -35 0 -47 -12 -22 -21 7 -3 5 -6 -5 -6 -21 -1 -23 -12
-6 -29 13 -13 5 -15 -29 -6 -16 4 -23 14 -23 30 0 12 -4 26 -10 29 -5 3 -10
15 -10 26 0 10 -10 29 -21 40 -17 17 -19 23 -8 30 12 7 12 9 0 9 -8 0 -11 6
-7 16 4 9 1 22 -4 30 -7 7 -8 27 -4 49 6 36 7 36 48 30 22 -4 64 -12 91 -19
28 -6 64 -11 80 -11 66 3 166 18 171 26 3 5 12 9 20 9 49 0 183 86 226 144 59
80 116 210 120 271 2 42 7 47 35 40 14 -3 39 -9 55 -12z m-1182 -63 c0 -5 -5
-10 -11 -10 -5 0 -7 5 -4 10 3 6 8 10 11 10 2 0 4 -4 4 -10z m1400 -4 c0 -2 3
-12 6 -20 4 -12 2 -15 -9 -10 -21 8 -30 34 -12 34 8 0 15 -2 15 -4z m-3850
-30 c-19 -17 -74 -31 -65 -17 5 9 44 24 75 30 2 1 -2 -5 -10 -13z m2375 -4 c0
-18 -20 -15 -23 4 -3 10 1 15 10 12 7 -3 13 -10 13 -16z m-2555 -36 c0 -3 -4
-8 -10 -11 -5 -3 -10 -1 -10 4 0 6 5 11 10 11 6 0 10 -2 10 -4z m253 -41 c-4
-15 -36 -12 -41 3 -3 9 3 13 19 10 13 -1 23 -7 22 -13z m2317 0 c0 -1 -8 -9
-17 -16 -10 -7 -15 -9 -11 -5 4 5 3 15 -3 22 -8 9 -5 11 10 7 12 -3 21 -7 21
-8z m-2420 -5 c-8 -5 -22 -10 -30 -10 -13 0 -13 1 0 10 8 5 22 10 30 10 13 0
13 -1 0 -10z m2550 -20 c0 -11 -4 -20 -10 -20 -5 0 -10 9 -10 20 0 11 5 20 10
20 6 0 10 -9 10 -20z m-2706 -15 c-4 -8 -12 -15 -20 -15 -17 0 -18 17 -1 23
22 9 27 7 21 -8z m156 5 c0 -5 -9 -10 -20 -10 -11 0 -20 5 -20 10 0 6 9 10 20
10 11 0 20 -4 20 -10z m2470 0 c0 -5 -4 -10 -10 -10 -5 0 -10 5 -10 10 0 6 5
10 10 10 6 0 10 -4 10 -10z m-45 -40 c3 -5 2 -10 -4 -10 -5 0 -13 5 -16 10 -3
6 -2 10 4 10 5 0 13 -4 16 -10z m75 -10 c0 -5 -6 -10 -14 -10 -8 0 -18 5 -21
10 -3 6 3 10 14 10 12 0 21 -4 21 -10z m25 -20 c3 -6 -4 -10 -17 -10 -18 0
-20 2 -8 10 19 12 18 12 25 0z m-130 -18 c-3 -3 -11 0 -18 7 -9 10 -8 11 6 5
10 -3 15 -9 12 -12z m-2465 -10 c0 -13 -12 -22 -22 -16 -10 6 -1 24 13 24 5 0
9 -4 9 -8z m1760 -29 c0 -43 -11 -73 -26 -73 -10 0 -11 6 -4 26 6 14 10 36 10
50 0 13 5 24 10 24 6 0 10 -12 10 -27z m-1720 -3 c0 -5 -9 -14 -19 -20 -25
-13 -31 -13 -31 0 0 6 7 10 15 10 8 0 15 5 15 10 0 6 5 10 10 10 6 0 10 -4 10
-10z m2600 0 c0 -5 -4 -10 -10 -10 -5 0 -10 5 -10 10 0 6 5 10 10 10 6 0 10
-4 10 -10z m-90 -21 c0 -5 -7 -9 -15 -9 -15 0 -20 12 -9 23 8 8 24 -1 24 -14z
m-2500 -35 c0 -2 -7 -4 -15 -4 -8 0 -15 4 -15 10 0 5 7 7 15 4 8 -4 15 -8 15
-10z m2610 -44 c0 -5 -2 -10 -4 -10 -3 0 -8 5 -11 10 -3 6 -1 10 4 10 6 0 11
-4 11 -10z m70 -25 c0 -8 -2 -15 -4 -15 -2 0 -6 7 -10 15 -3 8 -1 15 4 15 6 0
10 -7 10 -15z m-110 -25 c0 -5 -4 -10 -10 -10 -5 0 -10 5 -10 10 0 6 5 10 10
10 6 0 10 -4 10 -10z m50 -10 c0 -5 -2 -10 -4 -10 -3 0 -8 5 -11 10 -3 6 -1
10 4 10 6 0 11 -4 11 -10z m96 -260 c8 0 14 -7 14 -15 0 -17 -18 -19 -39 -6
-9 6 -11 16 -6 27 5 13 9 15 12 7 3 -7 11 -13 19 -13z m444 10 c8 -5 11 -12 7
-16 -4 -4 -15 0 -24 9 -18 18 -8 23 17 7z m35 -10 c3 -5 1 -10 -4 -10 -6 0
-11 5 -11 10 0 6 2 10 4 10 3 0 8 -4 11 -10z m-250 -100 c19 -8 19 -9 -2 -9
-12 -1 -25 4 -28 9 -7 12 2 12 30 0z m-1121 -86 c9 -3 16 -10 16 -15 0 -15
-37 -10 -50 6 -10 12 -10 15 3 15 8 0 22 -3 31 -6z m1146 -15 c0 -5 -4 -9 -10
-9 -5 0 -10 7 -10 16 0 8 5 12 10 9 6 -3 10 -10 10 -16z m-87 -5 c8 -9 -18
-34 -36 -34 -25 0 -27 13 -4 26 27 15 32 16 40 8z m116 -30 c2 -2 2 -7 -2 -10
-3 -3 -16 2 -29 11 l-23 17 25 -7 c14 -4 27 -9 29 -11z m-89 -24 c8 -5 11 -10
5 -10 -5 0 -17 5 -25 10 -8 5 -10 10 -5 10 6 0 17 -5 25 -10z m-35 -10 c3 -5
-7 -8 -24 -7 -16 1 -27 5 -24 10 6 10 41 9 48 -3z m112 4 c-3 -3 -12 -4 -19
-1 -8 3 -5 6 6 6 11 1 17 -2 13 -5z m-72 -44 c3 -5 1 -10 -4 -10 -6 0 -11 5
-11 10 0 6 2 10 4 10 3 0 8 -4 11 -10z m-15 -45 c10 -12 10 -15 -3 -15 -9 0
-19 5 -22 10 -4 6 -11 7 -17 4 -7 -4 -8 -2 -4 4 10 16 31 15 46 -3z m-920 -40
c0 -8 -4 -15 -10 -15 -5 0 -7 7 -4 15 4 8 8 15 10 15 2 0 4 -7 4 -15z m735
-25 c3 -5 -1 -10 -10 -10 -9 0 -13 5 -10 10 3 6 8 10 10 10 2 0 7 -4 10 -10z
m472 -86 c-3 -3 -12 -4 -19 -1 -8 3 -5 6 6 6 11 1 17 -2 13 -5z m-247 -14 c8
-5 11 -10 5 -10 -5 0 -17 5 -25 10 -8 5 -10 10 -5 10 6 0 17 -5 25 -10z m-780
-70 c0 -5 -4 -10 -10 -10 -5 0 -10 5 -10 10 0 6 5 10 10 10 6 0 10 -4 10 -10z
m1130 -6 c0 -2 -13 -4 -30 -4 -16 0 -30 4 -30 8 0 5 14 7 30 4 17 -2 30 -6 30
-8z m-545 -54 c3 -5 -1 -10 -9 -10 -9 0 -16 5 -16 10 0 6 4 10 9 10 6 0 13 -4
16 -10z m91 -9 c-4 -5 7 -12 23 -16 16 -3 36 -13 43 -22 11 -14 10 -15 -10 -9
-13 5 -22 3 -22 -3 0 -12 -29 -15 -54 -5 -27 10 -17 21 17 17 17 -2 25 0 17 3
-36 16 -49 44 -19 44 6 0 8 -4 5 -9z m114 -11 c0 -5 -5 -10 -11 -10 -5 0 -7 5
-4 10 3 6 8 10 11 10 2 0 4 -4 4 -10z m296 -210 c9 0 13 -4 10 -9 -4 -5 0 -12
6 -14 9 -4 7 -6 -3 -6 -9 -1 -27 9 -40 21 -18 16 -19 19 -6 15 10 -4 25 -7 33
-7z m-291 -18 c-3 -3 -11 0 -18 7 -9 10 -8 11 6 5 10 -3 15 -9 12 -12z"/>
<path d="M5180 4724 c0 -13 31 -35 45 -32 10 2 5 9 -15 20 -17 9 -30 15 -30
12z"/>
<path d="M4865 4655 c-40 -13 -40 -13 29 -9 42 2 75 -1 83 -8 7 -6 17 -8 21
-4 12 13 -30 36 -62 35 -17 0 -49 -6 -71 -14z"/>
<path d="M1526 3437 c3 -10 9 -15 12 -12 3 3 0 11 -7 18 -10 9 -11 8 -5 -6z"/>
<path d="M1557 3423 c-9 -8 12 -33 28 -33 8 0 11 8 8 20 -5 20 -23 26 -36 13z"/>
<path d="M1490 3370 c0 -5 5 -10 11 -10 5 0 7 5 4 10 -3 6 -8 10 -11 10 -2 0
-4 -4 -4 -10z"/>
<path d="M3167 3129 c-3 -12 -2 -31 3 -42 7 -18 9 -14 9 21 1 46 -4 54 -12 21z"/>
<path d="M3052 3119 c1 -12 8 -24 15 -26 7 -3 9 3 6 17 -8 29 -25 37 -21 9z"/>
<path d="M3180 3041 c0 -6 5 -13 10 -16 6 -3 10 1 10 9 0 9 -4 16 -10 16 -5 0
-10 -4 -10 -9z"/>
<path d="M3004 3009 c-4 -8 -3 -9 4 -5 7 4 12 2 12 -3 0 -6 5 -11 11 -11 13 0
7 22 -8 27 -6 2 -15 -1 -19 -8z"/>
<path d="M3200 2980 c0 -5 5 -10 10 -10 6 0 10 5 10 10 0 6 -4 10 -10 10 -5 0
-10 -4 -10 -10z"/>
<path d="M3044 2950 c2 -19 4 -43 5 -52 0 -10 6 -18 11 -18 6 0 8 11 4 25 -4
17 -2 25 7 25 9 0 10 3 3 8 -6 4 -16 16 -22 27 -10 17 -11 15 -8 -15z"/>
<path d="M700 2892 c0 -12 19 -26 26 -19 2 2 -2 10 -11 17 -9 8 -15 8 -15 2z"/>
<path d="M812 2810 c-14 -23 -5 -26 21 -6 20 16 22 26 4 26 -7 0 -18 -9 -25
-20z"/>
<path d="M868 2803 c7 -3 16 -2 19 1 4 3 -2 6 -13 5 -11 0 -14 -3 -6 -6z"/>
<path d="M1605 2570 c3 -5 13 -10 21 -10 8 0 14 5 14 10 0 6 -9 10 -21 10 -11
0 -17 -4 -14 -10z"/>
<path d="M1575 2560 c-3 -5 1 -10 10 -10 9 0 13 5 10 10 -3 6 -8 10 -10 10 -2
0 -7 -4 -10 -10z"/>
<path d="M1621 2543 c-17 -3 -20 -7 -12 -13 16 -9 51 -1 51 11 0 5 -3 8 -7 8
-5 -1 -19 -4 -32 -6z"/>
<path d="M242 5218 c6 -16 33 -22 56 -13 15 6 15 8 -3 15 -31 13 -57 12 -53
-2z"/>
<path d="M245 5182 c-2 -2 -1 -10 1 -16 3 -7 -2 -19 -11 -26 -8 -7 -15 -18
-15 -25 0 -7 -7 -15 -15 -19 -23 -8 -18 -26 8 -26 13 1 33 16 52 40 28 35 35
39 85 42 l55 3 -78 16 c-42 8 -79 13 -82 11z"/>
<path d="M568 5153 c7 -3 16 -2 19 1 4 3 -2 6 -13 5 -11 0 -14 -3 -6 -6z"/>
<path d="M325 5130 c-3 -6 1 -7 9 -4 18 7 21 14 7 14 -6 0 -13 -4 -16 -10z"/>
<path d="M590 5082 c0 -4 9 -8 19 -8 11 0 17 4 15 8 -3 4 -12 8 -20 8 -8 0
-14 -4 -14 -8z"/>
<path d="M664 5045 c16 -10 40 -18 54 -20 25 -3 25 -2 7 11 -10 8 -27 14 -36
14 -10 0 -26 3 -36 6 -10 3 -5 -2 11 -11z"/>
<path d="M174 5038 c-10 -15 -17 -149 -18 -343 -1 -199 34 -387 76 -401 19 -6
24 -19 10 -28 -17 -10 -12 -63 8 -84 24 -26 73 -31 64 -7 -5 11 1 15 17 15 19
0 21 -2 9 -10 -25 -16 -7 -19 60 -9 36 6 79 10 97 10 18 -1 34 3 38 8 3 6 -7
9 -22 8 -19 -1 -27 2 -25 12 2 11 -9 13 -53 9 -53 -4 -83 6 -52 18 8 3 17 14
20 25 4 14 -1 21 -19 25 -32 8 -49 30 -29 38 27 10 16 23 -25 30 -22 3 -40 11
-40 17 0 5 4 8 9 4 5 -3 12 -1 16 5 3 6 -1 13 -9 16 -9 3 -16 11 -16 16 0 6
-11 19 -25 30 -20 15 -23 25 -18 51 3 18 10 36 14 41 5 6 9 23 9 39 0 16 8 45
17 64 16 33 15 36 0 48 -18 13 -21 70 -5 92 5 6 5 14 0 17 -5 3 -10 33 -11 66
-1 45 2 62 13 66 20 8 28 34 15 50 -6 8 -9 20 -6 28 6 14 -13 25 -52 32 -8 2
-25 5 -37 8 -13 4 -26 1 -30 -6z"/>
<path d="M960 4998 c0 -6 44 -75 55 -86 2 -3 12 4 22 13 11 12 13 17 4 14 -8
-3 -29 11 -47 30 -19 20 -34 33 -34 29z"/>
<path d="M750 4830 c-8 -5 -12 -11 -9 -14 2 -3 11 -1 19 4 8 5 12 11 9 14 -2
3 -11 1 -19 -4z"/>
<path d="M338 4638 c9 -9 15 -9 24 0 9 9 7 12 -12 12 -19 0 -21 -3 -12 -12z"/>
<path d="M450 4535 c-7 -9 -11 -17 -9 -20 3 -2 10 5 17 15 14 24 10 26 -8 5z"/>
<path d="M460 4504 c0 -8 -4 -13 -9 -10 -4 3 -19 -6 -32 -20 -19 -21 -21 -28
-11 -44 6 -11 9 -26 6 -35 -5 -11 -2 -14 10 -9 9 3 16 9 16 14 0 4 9 17 20 30
21 24 28 90 10 90 -5 0 -10 -7 -10 -16z"/>
<path d="M4307 4443 c-12 -12 -7 -22 8 -17 8 4 15 10 15 15 0 11 -14 12 -23 2z"/>
<path d="M564 4358 c-10 -12 -13 -18 -6 -14 6 4 12 3 12 -3 0 -6 -9 -15 -21
-21 -11 -7 -18 -14 -16 -17 12 -11 47 19 47 42 0 13 6 26 13 28 7 3 7 6 1 6
-6 1 -19 -9 -30 -21z"/>
<path d="M440 4153 c-14 -2 -39 -6 -57 -9 -21 -3 -40 -16 -54 -35 -20 -29 -20
-30 -3 -57 26 -39 26 -53 -3 -80 -26 -24 -26 -24 -42 -4 -19 23 -60 46 -68 38
-3 -3 -7 -62 -8 -130 -2 -69 -6 -143 -10 -165 -5 -32 -2 -48 15 -76 25 -40 43
-46 39 -12 -4 36 22 130 43 152 48 50 108 135 108 154 0 30 -11 51 -26 51 -8
0 -14 6 -14 14 0 9 7 12 20 9 15 -4 20 0 20 16 0 11 5 21 10 21 6 0 10 -5 10
-11 0 -20 45 -48 75 -48 41 1 80 13 80 24 1 6 7 21 14 33 12 23 11 23 -11 17
-12 -4 -29 -10 -35 -12 -7 -3 -13 0 -13 7 0 8 -8 10 -21 7 -17 -4 -18 -3 -8 9
7 9 20 12 32 8 13 -4 17 -2 13 5 -4 6 -1 11 6 11 7 1 31 16 52 35 l39 35 -89
-1 c-49 -1 -100 -3 -114 -6z"/>
<path d="M277 4109 c-5 -20 -5 -20 14 -3 23 20 23 24 5 24 -7 0 -16 -9 -19
-21z"/>
<path d="M4560 4122 c0 -10 76 -92 85 -92 2 0 1 7 -2 17 -4 11 -3 14 5 9 7 -4
10 -2 7 6 -3 7 -15 20 -28 27 -12 8 -32 21 -44 29 -13 8 -23 10 -23 4z"/>
<path d="M2493 4072 c-15 -10 -20 -54 -6 -59 6 -2 14 10 18 27 8 35 5 42 -12
32z"/>
<path d="M2690 4030 c0 -5 7 -10 16 -10 8 0 12 5 9 10 -3 6 -10 10 -16 10 -5
0 -9 -4 -9 -10z"/>
<path d="M2635 4009 c-4 -6 -5 -13 -2 -16 7 -7 27 6 27 18 0 12 -17 12 -25 -2z"/>
<path d="M2458 3971 c-4 -51 -3 -54 20 -56 13 -1 22 4 22 12 0 8 -4 11 -10 8
-10 -6 -14 7 -11 32 1 6 -3 14 -9 18 -5 3 -11 -3 -12 -14z"/>
<path d="M2500 3961 c0 -5 6 -14 14 -20 12 -10 13 -8 9 8 -5 21 -23 30 -23 12z"/>
<path d="M2640 3959 c0 -5 4 -17 9 -27 5 -9 16 -32 23 -49 7 -18 15 -33 18
-33 9 0 6 -84 -4 -98 -5 -8 -4 -18 1 -23 14 -14 55 25 47 45 -3 9 -1 16 6 16
6 0 8 5 3 13 -4 6 -8 23 -8 37 0 18 -9 29 -34 41 -30 14 -32 17 -17 32 23 22
20 31 -14 44 -17 6 -30 7 -30 2z"/>
<path d="M2990 3953 c0 -5 5 -15 10 -23 8 -12 10 -11 10 8 0 12 -4 22 -10 22
-5 0 -10 -3 -10 -7z"/>
<path d="M2850 3910 c0 -5 5 -10 10 -10 6 0 10 5 10 10 0 6 -4 10 -10 10 -5 0
-10 -4 -10 -10z"/>
<path d="M2690 3900 c0 -5 5 -10 10 -10 6 0 10 5 10 10 0 6 -4 10 -10 10 -5 0
-10 -4 -10 -10z"/>
<path d="M2445 3890 c-3 -5 -1 -10 4 -10 6 0 11 5 11 10 0 6 -2 10 -4 10 -3 0
-8 -4 -11 -10z"/>
<path d="M2810 3870 c0 -11 5 -20 10 -20 6 0 10 9 10 20 0 11 -4 20 -10 20 -5
0 -10 -9 -10 -20z"/>
<path d="M2415 3813 c-19 -15 -19 -15 -1 -9 13 4 28 -4 51 -28 24 -26 32 -30
28 -15 -3 11 -14 26 -24 33 -10 7 -16 15 -14 18 14 14 -23 14 -40 1z"/>
<path d="M2970 3816 c0 -9 5 -16 10 -16 6 0 10 4 10 9 0 6 -4 13 -10 16 -5 3
-10 -1 -10 -9z"/>
<path d="M2656 3787 c3 -10 9 -15 12 -12 3 3 0 11 -7 18 -10 9 -11 8 -5 -6z"/>
<path d="M2870 3741 c0 -18 -6 -31 -17 -36 -17 -6 -17 -7 0 -19 15 -12 15 -15
2 -26 -8 -7 -14 -20 -14 -29 1 -13 2 -12 6 2 3 12 10 16 20 13 9 -4 22 -1 29
5 8 6 20 9 29 5 12 -4 14 3 12 37 -2 35 -5 41 -21 39 -17 -3 -18 -1 -8 11 10
12 9 16 -4 21 -28 11 -34 7 -34 -23z m46 -58 c-11 -11 -19 6 -11 24 8 17 8 17
12 0 3 -10 2 -21 -1 -24z"/>
<path d="M2368 3653 c7 -3 16 -2 19 1 4 3 -2 6 -13 5 -11 0 -14 -3 -6 -6z"/>
<path d="M1190 3643 c0 -13 29 -38 35 -31 3 3 -4 13 -15 23 -11 10 -20 13 -20
8z"/>
<path d="M2381 3604 c0 -11 3 -14 6 -6 3 7 2 16 -1 19 -3 4 -6 -2 -5 -13z"/>
<path d="M2830 3590 c-12 -8 -10 -10 8 -10 13 0 20 4 17 10 -7 12 -6 12 -25 0z"/>
<path d="M2775 3580 c-3 -5 -1 -10 4 -10 6 0 11 5 11 10 0 6 -2 10 -4 10 -3 0
-8 -4 -11 -10z"/>
<path d="M3926 3504 c-38 -19 -98 -55 -133 -80 -56 -40 -62 -47 -52 -65 9 -18
8 -19 -10 -7 -17 11 -23 10 -37 -4 -15 -15 -15 -18 0 -39 l16 -23 0 32 c0 17
5 32 10 32 12 0 13 -50 2 -66 -4 -6 -17 -10 -29 -9 -13 1 -23 -2 -23 -8 0 -5
-6 -7 -12 -4 -7 2 -24 -5 -37 -17 l-24 -21 6 23 c6 25 -8 30 -17 6 -10 -25 -7
-34 9 -34 15 0 16 -32 2 -46 -4 -4 -7 -13 -7 -21 0 -10 9 -7 30 9 20 15 30 30
30 49 0 30 24 57 35 39 3 -5 3 -20 0 -31 -7 -20 -4 -20 46 7 54 30 77 57 40
47 -12 -3 -21 -3 -21 1 0 14 62 126 70 126 5 0 2 -14 -7 -31 -12 -24 -13 -36
-4 -55 11 -24 31 -33 31 -13 0 5 4 8 8 5 13 -8 135 53 155 77 10 12 16 16 12
10 -7 -15 9 -17 34 -4 23 13 27 74 5 91 -12 11 -20 11 -34 2 -14 -8 -19 -8
-23 2 -3 8 0 19 6 25 8 8 7 11 -3 11 -13 0 -13 2 0 10 34 22 -9 7 -74 -26z
m-48 -159 c-5 -12 -20 -22 -34 -23 -18 -1 -23 2 -18 11 15 26 24 33 42 33 16
0 18 -4 10 -21z"/>
<path d="M1012 3518 c3 -7 12 -14 21 -16 12 -2 15 1 11 12 -7 19 -38 22 -32 4z"/>
<path d="M2395 3441 c-6 -11 9 -23 19 -14 9 9 7 23 -3 23 -6 0 -12 -4 -16 -9z"/>
<path d="M2448 3438 c7 -7 12 -20 12 -30 0 -20 15 -24 25 -7 8 11 -22 49 -39
49 -6 0 -5 -5 2 -12z"/>
<path d="M4113 3433 c-12 -2 -24 -11 -27 -19 -7 -17 -7 -17 38 1 52 22 48 29
-11 18z"/>
<path d="M3540 3371 c-7 -15 -7 -21 0 -21 12 0 25 28 17 36 -3 3 -10 -4 -17
-15z"/>
<path d="M1820 3268 c0 -18 18 -34 28 -24 3 4 -2 14 -11 23 -16 16 -17 16 -17
1z"/>
<path d="M1774 3250 c0 -10 3 -17 7 -15 3 3 25 -12 48 -31 51 -44 54 -31 3 17
-50 47 -58 51 -58 29z"/>
<path d="M720 3250 c0 -5 5 -10 11 -10 5 0 7 5 4 10 -3 6 -8 10 -11 10 -2 0
-4 -4 -4 -10z"/>
<path d="M2510 3232 c0 -10 22 -32 32 -32 15 0 8 15 -12 28 -11 7 -20 9 -20 4z"/>
<path d="M1240 3176 c0 -2 7 -7 16 -10 8 -3 12 -2 9 4 -6 10 -25 14 -25 6z"/>
<path d="M161 3144 c0 -11 3 -14 6 -6 3 7 2 16 -1 19 -3 4 -6 -2 -5 -13z"/>
<path d="M1330 3100 c0 -5 7 -10 16 -10 8 0 12 5 9 10 -3 6 -10 10 -16 10 -5
0 -9 -4 -9 -10z"/>
<path d="M1 3043 c0 -44 2 -53 9 -36 5 12 18 24 29 28 26 8 26 20 1 45 -32 32
-40 24 -39 -37z"/>
<path d="M135 3090 c3 -5 8 -10 11 -10 2 0 4 5 4 10 0 6 -5 10 -11 10 -5 0 -7
-4 -4 -10z"/>
<path d="M1663 3087 c14 -11 15 -16 5 -20 -9 -4 -9 -6 -1 -6 23 -2 23 18 1 29
-21 10 -22 10 -5 -3z"/>
<path d="M1719 3079 c13 -11 31 -17 39 -14 8 3 21 0 29 -6 10 -9 17 -9 25 -1
14 14 15 13 -35 16 -21 2 -43 8 -50 15 -6 6 -16 11 -21 11 -6 -1 0 -10 13 -21z"/>
<path d="M1415 3060 c-4 -6 6 -10 22 -10 22 0 25 2 13 10 -19 12 -27 12 -35 0z"/>
<path d="M1708 3059 c10 -13 10 -19 -2 -28 -7 -6 -20 -10 -27 -8 -8 2 -4 -1 9
-7 34 -15 29 -38 -5 -25 -29 12 -131 38 -148 39 -18 0 57 -41 79 -44 12 -1 35
-8 51 -15 17 -7 43 -14 60 -16 16 -1 31 -7 33 -14 2 -6 10 -11 18 -11 8 0 11
6 8 15 -8 19 6 19 34 -1 12 -8 30 -14 40 -12 13 3 8 12 -25 43 -32 30 -39 42
-31 52 6 8 15 10 22 5 6 -5 19 -12 29 -15 14 -5 16 -3 8 12 -7 13 -19 17 -40
15 -17 -2 -33 1 -36 6 -3 6 -11 10 -16 10 -6 0 -7 -4 -4 -10 10 -16 -13 -12
-43 7 -23 15 -25 15 -14 2z"/>
<path d="M2340 3017 c0 -9 0 -20 -1 -24 0 -4 4 -9 10 -11 6 -2 10 5 8 17 -4
26 -17 40 -17 18z"/>
<path d="M1305 3000 c11 -5 34 -9 50 -9 23 -1 26 2 15 9 -8 5 -31 9 -50 9 -29
0 -31 -2 -15 -9z"/>
<path d="M1237 2959 c7 -7 15 -10 18 -7 3 3 -2 9 -12 12 -14 6 -15 5 -6 -5z"/>
<path d="M4040 2950 c-35 -27 -19 -35 24 -12 19 11 33 22 29 26 -11 10 -27 6
-53 -14z"/>
<path d="M1180 2956 c0 -2 7 -7 16 -10 8 -3 12 -2 9 4 -6 10 -25 14 -25 6z"/>
<path d="M1278 2953 c6 -2 18 -2 25 0 6 3 1 5 -13 5 -14 0 -19 -2 -12 -5z"/>
<path d="M1388 2953 c6 -2 18 -2 25 0 6 3 1 5 -13 5 -14 0 -19 -2 -12 -5z"/>
<path d="M4126 2925 c-3 -8 -2 -15 3 -15 5 0 14 7 21 15 10 12 10 15 -3 15 -8
0 -17 -7 -21 -15z"/>
<path d="M1815 2920 c3 -5 11 -10 16 -10 6 0 7 5 4 10 -3 6 -11 10 -16 10 -6
0 -7 -4 -4 -10z"/>
<path d="M2353 2896 c4 -9 3 -16 -2 -16 -5 0 -11 -9 -14 -19 -5 -19 7 -22 29
-9 15 10 11 51 -6 56 -9 3 -11 -1 -7 -12z"/>
<path d="M1903 2865 c16 -9 31 -14 35 -11 8 9 0 14 -33 21 l-30 6 28 -16z"/>
<path d="M3575 2860 c3 -5 8 -10 11 -10 2 0 4 5 4 10 0 6 -5 10 -11 10 -5 0
-7 -4 -4 -10z"/>
<path d="M3570 2815 c-16 -19 0 -19 26 0 16 12 16 14 3 15 -9 0 -22 -7 -29
-15z"/>
<path d="M3790 2820 c0 -5 5 -10 10 -10 6 0 10 5 10 10 0 6 -4 10 -10 10 -5 0
-10 -4 -10 -10z"/>
<path d="M3686 2812 c-3 -5 8 -6 25 -4 16 2 29 6 29 8 0 8 -49 4 -54 -4z"/>
<path d="M3888 2793 c7 -3 16 -2 19 1 4 3 -2 6 -13 5 -11 0 -14 -3 -6 -6z"/>
<path d="M3935 2790 c11 -5 31 -8 45 -8 l25 0 -25 8 c-14 4 -34 8 -45 8 l-20
1 20 -9z"/>
<path d="M3538 2783 c-10 -2 -18 -9 -18 -14 0 -14 16 -11 30 6 7 8 11 14 9 14
-2 -1 -12 -3 -21 -6z"/>
<path d="M3814 2768 c-3 -4 16 -7 41 -6 25 0 45 4 45 9 0 10 -80 8 -86 -3z"/>
<path d="M2711 2754 c0 -11 3 -14 6 -6 3 7 2 16 -1 19 -3 4 -6 -2 -5 -13z"/>
<path d="M3745 2751 c-11 -5 -26 -6 -32 -4 -7 3 -13 0 -13 -6 0 -12 31 -14 79
-5 17 4 28 10 25 15 -6 11 -32 11 -59 0z"/>
<path d="M2555 2740 c-3 -5 -2 -10 4 -10 6 0 19 -10 31 -22 18 -20 20 -20 20
-3 0 10 -8 24 -17 31 -22 16 -30 17 -38 4z"/>
<path d="M3815 2730 c-3 -5 -1 -10 4 -10 6 0 11 5 11 10 0 6 -2 10 -4 10 -3 0
-8 -4 -11 -10z"/>
<path d="M2870 2716 c0 -9 5 -16 10 -16 6 0 10 4 10 9 0 6 -4 13 -10 16 -5 3
-10 -1 -10 -9z"/>
<path d="M2030 2711 c0 -13 60 -55 67 -47 6 6 -16 27 -49 47 -11 6 -18 6 -18
0z"/>
<path d="M2638 2709 c-8 -21 28 -64 38 -47 13 20 15 48 4 48 -6 0 -10 -5 -10
-12 0 -6 -6 -4 -13 6 -11 15 -15 16 -19 5z"/>
<path d="M2733 2701 c1 -15 4 -17 14 -9 17 14 16 28 -1 28 -8 0 -14 -9 -13
-19z"/>
<path d="M2760 2678 c-11 -12 -20 -27 -20 -32 0 -6 7 -3 15 8 7 10 18 16 22
13 5 -3 14 3 21 14 18 28 -11 26 -38 -3z"/>
<path d="M3830 2690 c0 -5 17 -10 38 -9 33 1 34 2 12 9 -36 11 -50 11 -50 0z"/>
<path d="M2110 2647 c0 -5 5 -17 10 -28 9 -15 7 -19 -7 -19 -15 0 -16 -2 -3
-10 13 -9 13 -11 0 -19 -22 -15 -5 -24 20 -11 16 8 19 17 14 33 -7 24 -34 66
-34 54z"/>
<path d="M2220 2640 c0 -5 5 -10 10 -10 6 0 10 5 10 10 0 6 -4 10 -10 10 -5 0
-10 -4 -10 -10z"/>
<path d="M4040 2640 c20 -13 33 -13 25 0 -3 6 -14 10 -23 10 -15 0 -15 -2 -2
-10z"/>
<path d="M2690 2630 c0 -5 5 -10 11 -10 5 0 7 5 4 10 -3 6 -8 10 -11 10 -2 0
-4 -4 -4 -10z"/>
<path d="M2590 2610 c0 -5 5 -10 10 -10 6 0 10 5 10 10 0 6 -4 10 -10 10 -5 0
-10 -4 -10 -10z"/>
<path d="M2191 2594 c0 -11 3 -14 6 -6 3 7 2 16 -1 19 -3 4 -6 -2 -5 -13z"/>
<path d="M180 2560 c0 -5 7 -10 15 -10 8 0 15 5 15 10 0 6 -7 10 -15 10 -8 0
-15 -4 -15 -10z"/>
<path d="M2355 2560 c3 -5 8 -10 11 -10 2 0 4 5 4 10 0 6 -5 10 -11 10 -5 0
-7 -4 -4 -10z"/>
<path d="M2720 2511 c0 -5 5 -13 10 -16 6 -3 10 -2 10 4 0 5 -4 13 -10 16 -5
3 -10 2 -10 -4z"/>
<path d="M2434 2495 c-18 -14 -18 -14 9 -15 15 0 27 4 27 9 0 18 -17 20 -36 6z"/>
<path d="M2810 2443 c1 -14 30 -47 36 -41 6 7 -17 48 -28 48 -5 0 -8 -3 -8 -7z"/>
<path d="M2645 2430 c3 -5 8 -10 11 -10 2 0 4 5 4 10 0 6 -5 10 -11 10 -5 0
-7 -4 -4 -10z"/>
<path d="M1188 2397 c12 -7 19 -16 15 -21 -4 -4 1 -4 10 0 21 8 12 19 -23 28
l-25 7 23 -14z"/>
<path d="M890 2390 c13 -9 13 -10 0 -11 -8 0 0 -7 19 -15 18 -8 35 -13 38 -10
2 2 -5 7 -16 11 -12 3 -21 13 -21 21 0 8 -8 14 -17 14 -15 0 -16 -2 -3 -10z"/>
<path d="M1120 2390 c20 -13 43 -13 35 0 -3 6 -16 10 -28 10 -18 0 -19 -2 -7
-10z"/>
<path d="M570 2373 c-13 -15 -12 -16 4 -10 10 4 20 7 22 7 2 0 4 5 4 10 0 15
-13 12 -30 -7z"/>
<path d="M830 2370 c8 -5 22 -9 30 -9 10 0 8 3 -5 9 -27 12 -43 12 -25 0z"/>
<path d="M134 2359 c-4 -6 -21 -8 -43 -5 -34 6 -35 6 -16 -10 15 -11 32 -14
64 -10 51 7 61 13 41 26 -20 13 -37 12 -46 -1z"/>
<path d="M1056 2355 c10 -8 26 -14 34 -14 9 0 4 6 -10 14 -33 19 -49 19 -24 0z"/>
<path d="M2700 2360 c0 -5 9 -10 20 -10 11 0 20 5 20 10 0 6 -9 10 -20 10 -11
0 -20 -4 -20 -10z"/>
<path d="M1165 2350 c3 -5 11 -10 16 -10 6 0 7 5 4 10 -3 6 -11 10 -16 10 -6
0 -7 -4 -4 -10z"/>
<path d="M1220 2350 c0 -5 5 -10 10 -10 6 0 10 5 10 10 0 6 -4 10 -10 10 -5 0
-10 -4 -10 -10z"/>
<path d="M856 2335 c4 -9 0 -15 -10 -15 -9 0 -16 -3 -17 -7 0 -5 -2 -16 -4
-25 -2 -9 5 -24 15 -33 10 -9 16 -23 13 -31 -4 -10 0 -12 11 -8 9 3 16 10 16
15 0 14 26 10 40 -6 11 -13 10 -14 -4 -9 -10 4 -25 -1 -36 -11 -24 -22 -26
-35 -5 -35 8 0 15 -4 15 -10 0 -5 6 -7 13 -4 19 7 62 -30 53 -44 -12 -19 -42
-14 -60 11 -15 21 -16 21 -30 4 -10 -13 -16 -15 -21 -7 -4 7 -23 18 -41 26
-32 13 -36 13 -56 -6 -19 -17 -20 -20 -4 -20 9 0 15 -4 11 -9 -3 -5 -21 -7
-41 -4 -34 6 -35 5 -28 -21 4 -19 2 -27 -10 -32 -22 -9 -20 -24 4 -24 18 0 25
11 21 34 -1 5 8 6 20 3 15 -4 27 0 34 10 11 15 14 14 24 -5 7 -13 17 -20 22
-16 15 9 69 -16 69 -32 0 -8 -7 -14 -16 -14 -10 0 -14 5 -10 16 3 8 2 12 -3 9
-5 -3 -12 -1 -16 5 -11 18 -21 10 -20 -17 0 -24 5 -28 38 -34 20 -3 41 -9 45
-13 10 -10 -29 -38 -45 -32 -16 7 -25 -8 -17 -29 5 -11 15 -15 30 -12 13 2 24
0 24 -4 0 -5 -4 -9 -10 -9 -5 0 -10 -4 -10 -10 0 -5 19 -10 43 -9 34 0 38 2
21 9 -24 9 -41 30 -25 30 24 0 81 -43 81 -61 0 -16 5 -18 25 -13 27 7 33 -4
13 -24 -9 -9 -9 -12 0 -12 7 0 12 -9 12 -21 0 -16 4 -19 19 -14 12 3 23 0 28
-8 12 -21 55 -41 80 -38 14 1 32 -8 46 -23 14 -14 31 -26 38 -26 11 0 11 2 -1
10 -13 8 -12 11 5 24 28 21 40 20 42 -5 1 -15 -3 -19 -13 -15 -8 3 -13 2 -9
-3 3 -5 20 -13 38 -17 17 -3 40 -12 50 -19 17 -12 16 -13 -8 -19 -30 -8 -77 2
-69 15 3 5 -9 9 -25 9 -17 0 -31 -5 -31 -10 0 -6 -8 -5 -20 2 -10 7 -23 8 -27
4 -4 -5 -2 -11 5 -13 15 -6 16 -33 0 -33 -6 0 -4 -8 6 -19 20 -22 60 -34 126
-36 25 -1 59 -7 75 -14 24 -10 113 -31 131 -31 2 0 4 -7 4 -15 0 -20 -29 -19
-36 0 -4 10 -13 13 -25 10 -11 -4 -35 -1 -55 5 -23 8 -39 8 -47 2 -7 -5 -28
-13 -47 -16 -31 -6 -33 -6 -17 7 16 13 16 15 1 21 -23 9 -31 7 -14 -4 11 -7 6
-10 -21 -10 -43 0 -53 8 -36 28 10 13 8 14 -13 10 -14 -3 -32 -8 -40 -10 -8
-3 -12 -3 -7 -1 18 11 4 22 -35 28 -24 4 -53 14 -66 23 -26 17 -41 10 -24 -11
14 -16 6 -27 -18 -27 -13 0 -16 6 -12 25 3 20 0 25 -16 25 -12 0 -24 5 -27 10
-3 6 -18 11 -33 11 -21 1 -18 4 16 12 23 5 42 16 42 23 0 19 -82 28 -135 15
-24 -6 -52 -11 -62 -10 -10 1 -4 5 12 9 17 4 44 13 60 19 17 6 48 13 70 17 36
5 38 7 19 17 -12 7 -19 18 -17 24 3 7 -7 18 -21 24 -35 16 -33 30 3 23 23 -5
32 -2 40 14 10 18 7 20 -44 27 -38 4 -55 11 -55 21 0 8 -4 14 -10 14 -5 0 -10
-4 -10 -9 0 -6 -15 -7 -32 -5 -18 3 -44 1 -58 -4 -23 -9 -22 -10 21 -17 29 -4
46 -12 46 -21 0 -10 -12 -12 -49 -8 -33 4 -54 1 -69 -9 l-21 -15 21 -7 c24 -7
26 -16 9 -33 -9 -9 -9 -12 2 -13 8 -1 20 -1 25 1 6 1 5 -4 -2 -10 -6 -7 -29
-16 -51 -20 -31 -5 -39 -4 -35 6 12 33 -116 30 -149 -4 -16 -16 -18 -24 -9
-40 18 -34 14 -68 -9 -69 -11 -1 -20 4 -20 13 0 21 -18 17 -25 -6 -3 -11 -11
-20 -17 -20 -7 0 -6 -5 1 -14 14 -17 0 -29 -22 -20 -23 9 -30 -13 -12 -40 16
-24 18 -24 57 -10 48 16 48 17 48 6 0 -5 -17 -14 -39 -20 -46 -14 -65 -35 -58
-62 3 -13 -3 -30 -18 -46 -23 -25 -25 -25 -79 -13 -55 12 -74 33 -41 46 14 5
14 7 0 23 -11 12 -14 29 -10 59 5 38 3 43 -25 59 -16 9 -28 22 -26 29 7 18
-21 36 -47 30 -34 -9 -67 -45 -67 -72 0 -17 -6 -25 -17 -25 -15 0 -16 2 -3 10
13 9 13 11 0 20 -8 5 -25 10 -37 10 l-23 0 0 -555 0 -554 83 29 c45 16 197 72
337 125 320 121 489 178 666 225 78 20 81 22 81 50 0 31 2 30 -72 30 -35 0
-32 22 9 65 33 35 52 75 35 75 -4 0 -6 7 -3 15 5 11 -1 13 -32 8 -35 -6 -37
-5 -31 16 4 17 2 21 -9 17 -24 -9 -15 10 11 24 37 20 18 30 -76 40 -83 8 -83
8 37 6 97 -2 121 1 117 11 -3 7 -17 16 -31 20 -24 6 -24 6 -6 20 18 14 17 14
-13 8 -17 -3 -34 -2 -37 4 -9 14 65 24 121 15 26 -3 46 -4 43 -1 -9 10 -163
46 -218 51 -29 3 -60 10 -70 16 -14 8 -12 9 10 4 38 -8 72 4 58 21 -8 10 -7
14 2 18 10 4 10 6 1 6 -18 1 -16 21 2 21 8 0 15 5 15 10 0 6 -8 10 -17 10 -14
0 -15 2 -4 9 11 7 11 9 0 14 -8 3 1 6 18 6 37 1 74 -25 66 -45 -7 -19 21 -28
46 -14 25 13 19 30 -10 30 -11 0 -17 5 -14 10 3 6 1 10 -5 10 -7 0 -10 7 -6
15 3 10 -1 15 -13 15 -11 0 -22 6 -24 13 -4 9 -8 9 -15 -1 -7 -11 -23 -12 -68
-6 -33 4 -51 10 -41 12 9 2 17 7 17 12 0 4 18 11 40 15 22 4 40 11 40 17 0 6
-13 7 -31 3 -45 -10 -28 11 19 25 49 13 55 13 48 -5 -3 -8 -1 -15 4 -15 6 0
10 -4 10 -8 0 -5 -28 -16 -62 -25 -35 -9 -47 -14 -28 -12 83 13 151 17 167 10
17 -7 17 -8 -2 -15 -17 -7 -16 -9 10 -10 51 -2 122 -24 118 -37 -3 -7 9 -13
29 -15 l33 -4 -35 -14 -35 -14 40 -8 c26 -6 41 -5 43 2 2 5 19 10 38 10 30 0
34 -3 34 -25 0 -22 4 -25 38 -24 20 0 31 3 25 6 -20 8 -15 23 7 23 22 0 82 54
93 82 4 11 12 15 22 12 17 -7 21 11 5 21 -11 7 6 28 30 38 10 4 8 6 -7 6 -12
1 -24 5 -27 10 -3 4 -18 6 -33 3 -16 -2 -26 -3 -23 -1 3 2 16 13 29 24 14 11
21 15 18 9 -4 -7 0 -15 9 -18 10 -4 13 -2 8 6 -5 7 0 9 14 6 15 -4 19 -2 15 8
-3 9 2 14 16 14 12 0 21 6 21 15 0 8 -7 15 -16 15 -26 0 -10 23 22 32 16 5 43
6 59 3 22 -4 26 -2 15 5 -13 9 -13 12 3 24 30 23 11 47 -32 41 -20 -3 -29 -2
-21 1 8 4 17 10 20 13 3 3 14 11 25 17 11 7 19 19 19 27 -1 9 4 13 11 11 8 -3
12 6 13 26 1 29 -1 31 -29 26 -16 -2 -31 0 -35 5 -3 5 0 9 5 9 6 0 11 5 11 10
0 6 -6 10 -14 10 -7 0 -19 6 -25 14 -7 8 -21 12 -31 9 -12 -3 -20 0 -20 6 0 7
-8 11 -17 10 -10 -2 -31 1 -48 5 -29 8 -29 8 -7 17 12 4 22 14 22 21 0 9 -3 9
-12 0 -17 -17 -58 -15 -58 3 0 8 -8 16 -17 16 -10 1 -25 2 -33 3 -16 1 -90 35
-90 41 0 2 17 1 38 -1 32 -5 34 -4 17 7 -19 12 -19 12 0 20 17 6 15 7 -7 6
-34 -2 -80 23 -74 40 3 7 -1 13 -8 13 -7 0 -23 9 -35 19 -13 11 -28 22 -34 25
-9 3 -8 7 1 14 10 7 6 16 -18 41 -17 17 -39 31 -48 31 -15 0 -15 2 -2 11 12 9
11 10 -7 6 -13 -3 -24 1 -27 9 -3 9 1 14 12 14 15 0 15 2 2 10 -8 5 -24 9 -35
9 -15 0 -16 -2 -5 -7 24 -11 21 -40 -4 -35 -32 7 -66 25 -61 33 2 3 -10 4 -27
2 -29 -4 -30 -6 -13 -18 10 -8 24 -14 30 -14 7 0 20 -9 30 -20 16 -18 16 -20
2 -20 -10 0 -17 7 -17 16 0 8 -4 12 -10 9 -5 -3 -16 -3 -22 2 -7 4 -29 8 -48
8 -19 1 -48 4 -65 9 -27 7 -28 6 -12 -7 10 -8 15 -17 10 -20 -11 -7 -49 21
-40 29 3 4 -4 14 -15 24 -20 16 -21 19 -6 33 9 9 18 14 21 11 10 -10 148 -13
142 -4 -4 6 -17 10 -29 10 -13 0 -29 7 -36 15 -7 8 -21 15 -32 15 -17 0 -18
-3 -8 -15 7 -8 10 -15 7 -15 -2 0 -24 7 -47 15 -23 8 -53 15 -66 15 -17 0 -22
-4 -18 -15z m174 -135 c0 -12 -58 -18 -72 -7 -10 6 -9 8 2 4 8 -2 21 2 28 9
13 13 42 9 42 -6z m184 -18 c-6 -8 -44 20 -39 28 3 5 14 2 24 -8 10 -9 17 -18
15 -20z m-80 -3 c8 -9 5 -10 -14 -5 -14 3 -38 6 -53 6 -18 0 -26 4 -21 11 8
14 73 5 88 -12z m-104 -15 c12 -4 12 -7 1 -13 -15 -10 -91 7 -91 21 0 8 54 3
90 -8z m160 -24 c0 -5 -7 -7 -15 -4 -8 4 -15 8 -15 10 0 2 7 4 15 4 8 0 15 -4
15 -10z m-76 -15 c11 -8 16 -18 13 -22 -8 -8 -57 17 -57 29 0 13 23 9 44 -7z
m-79 -15 c4 -7 -3 -8 -22 -4 -38 9 -42 14 -10 14 14 0 29 -5 32 -10z m125 -50
c-20 -13 -43 -13 -35 0 3 6 16 10 28 10 18 0 19 -2 7 -10z m-45 -20 c8 -13
-15 -13 -35 0 -12 8 -11 10 7 10 12 0 25 -4 28 -10z m125 -54 c0 -2 -9 -2 -20
1 -11 3 -20 9 -20 15 0 5 9 4 20 -2 11 -6 20 -12 20 -14z m185 -16 c3 -5 -3
-10 -15 -10 -12 0 -18 5 -15 10 3 6 10 10 15 10 5 0 12 -4 15 -10z m-48 -14
c1 -1 -6 -6 -15 -12 -13 -8 -27 -6 -57 7 l-40 18 55 -6 c30 -3 56 -6 57 -7z
m-147 -6 c0 -5 -2 -10 -4 -10 -3 0 -8 5 -11 10 -3 6 -1 10 4 10 6 0 11 -4 11
-10z m-153 -6 c-3 -3 -12 -4 -19 -1 -8 3 -5 6 6 6 11 1 17 -2 13 -5z m463 -18
c0 -3 -4 -8 -10 -11 -5 -3 -10 -1 -10 4 0 6 5 11 10 11 6 0 10 -2 10 -4z
m-436 -22 c4 -11 1 -14 -11 -12 -9 2 -18 9 -21 16 -6 18 25 15 32 -4z m311
-14 c-3 -5 -14 -10 -23 -10 -15 0 -15 2 -2 10 20 13 33 13 25 0z m-340 -28
c-3 -3 -11 0 -18 7 -9 10 -8 11 6 5 10 -3 15 -9 12 -12z m72 2 c-3 -3 -12 -4
-19 -1 -8 3 -5 6 6 6 11 1 17 -2 13 -5z m183 -10 c0 -2 -7 -4 -15 -4 -8 0 -15
4 -15 10 0 5 7 7 15 4 8 -4 15 -8 15 -10z m68 6 c14 0 14 -2 3 -9 -7 -5 -11
-13 -7 -19 4 -7 -11 -10 -44 -8 -59 3 -80 16 -26 16 31 0 37 3 32 16 -5 12 -2
15 10 10 8 -3 23 -6 32 -6z m-156 -12 c-9 -9 -15 -9 -24 0 -9 9 -7 12 12 12
19 0 21 -3 12 -12z m263 2 c3 -5 -1 -10 -9 -10 -9 0 -16 5 -16 10 0 6 4 10 9
10 6 0 13 -4 16 -10z m185 -10 c0 -5 -6 -12 -12 -16 -7 -4 -10 -4 -6 1 4 4 3
14 -4 22 -8 11 -7 12 6 7 9 -3 16 -10 16 -14z m50 10 c0 -5 -4 -10 -10 -10 -5
0 -10 5 -10 10 0 6 5 10 10 10 6 0 10 -4 10 -10z m-665 -10 c3 -5 2 -10 -4
-10 -5 0 -13 5 -16 10 -3 6 -2 10 4 10 5 0 13 -4 16 -10z m72 -16 c-16 -9 -31
-13 -35 -10 -3 3 1 6 9 6 11 0 11 2 -1 10 -11 7 -6 10 20 9 l35 0 -28 -15z
m143 -30 c24 -13 24 -13 3 -14 -30 0 -73 17 -73 30 0 13 30 6 70 -16z m261 8
c-7 -2 -18 1 -23 6 -8 8 -4 9 13 5 13 -4 18 -8 10 -11z m-364 -8 c-3 -3 -12
-4 -19 -1 -8 3 -5 6 6 6 11 1 17 -2 13 -5z m420 0 c-3 -3 -12 -4 -19 -1 -8 3
-5 6 6 6 11 1 17 -2 13 -5z m123 -14 c0 -5 -4 -10 -10 -10 -5 0 -10 5 -10 10
0 6 5 10 10 10 6 0 10 -4 10 -10z m-551 -22 c12 -15 11 -18 -3 -18 -10 0 -16
8 -16 22 0 12 1 19 3 17 1 -2 9 -12 16 -21z m-387 -10 c-7 -7 -12 -8 -12 -2 0
14 12 26 19 19 2 -3 -1 -11 -7 -17z m687 18 c-2 -2 -20 -6 -39 -10 -25 -4 -31
-3 -20 4 14 9 69 15 59 6z m207 -11 c-8 -8 -17 -15 -20 -15 -3 0 -6 7 -6 15 0
9 9 15 21 15 18 0 19 -2 5 -15z m-43 -12 c-7 -2 -19 -2 -25 0 -7 3 -2 5 12 5
14 0 19 -2 13 -5z m22 -22 c-6 -5 -21 -12 -34 -16 -21 -6 -22 -5 -10 8 8 9 23
16 34 17 11 0 15 -3 10 -9z m-92 -8 c-7 -2 -21 -2 -30 0 -10 3 -4 5 12 5 17 0
24 -2 18 -5z m-80 -10 c-13 -2 -33 -2 -45 0 -13 2 -3 4 22 4 25 0 35 -2 23 -4z
m191 -9 c22 -9 20 -31 -4 -37 -11 -3 -20 -2 -20 3 0 4 -12 11 -27 15 -21 5
-24 8 -12 16 16 10 41 12 63 3z m-916 -49 c-10 -10 -49 -14 -43 -4 4 5 16 9
27 9 12 0 19 -2 16 -5z m767 -4 c-3 -5 3 -12 12 -14 10 -3 2 -5 -17 -6 -33 0
-34 1 -16 14 23 17 30 19 21 6z m-74 -14 c21 6 22 4 12 -9 -7 -8 -10 -18 -6
-22 4 -3 -9 -3 -28 0 -32 7 -48 19 -49 36 0 4 11 3 24 -2 13 -5 34 -6 47 -3z
m166 7 c-3 -3 -12 -4 -19 -1 -8 3 -5 6 6 6 11 1 17 -2 13 -5z m-684 -41 c-7
-2 -19 -2 -25 0 -7 3 -2 5 12 5 14 0 19 -2 13 -5z m-96 -29 c-3 -3 -12 -4 -19
-1 -8 3 -5 6 6 6 11 1 17 -2 13 -5z m-327 -8 c0 -2 -7 -6 -15 -10 -8 -3 -15
-1 -15 4 0 6 7 10 15 10 8 0 15 -2 15 -4z m-371 -65 c8 -5 9 -11 3 -15 -5 -3
-15 1 -22 9 -14 16 -3 20 19 6z m706 -51 c-3 -5 -13 -10 -21 -10 -8 0 -14 -6
-14 -12 0 -9 -3 -8 -10 2 -6 9 -5 17 3 22 18 11 49 10 42 -2z m-85 -14 c0 -4
-68 -46 -76 -46 -2 0 -4 4 -4 10 0 5 11 12 25 16 14 3 25 10 25 15 0 5 7 9 15
9 8 0 15 -2 15 -4z m40 -46 c0 -5 -10 -10 -22 -10 -19 0 -20 2 -8 10 19 13 30
13 30 0z m38 -36 c-4 -3 -21 -8 -40 -10 -25 -4 -29 -2 -18 5 16 11 68 15 58 5z
m-88 -24 c-20 -13 -43 -13 -35 0 3 6 16 10 28 10 18 0 19 -2 7 -10z m-396 -9
c3 -5 -5 -11 -19 -13 -20 -4 -23 -3 -14 8 13 16 25 18 33 5z m256 -135 c0 -2
-7 -7 -16 -10 -8 -3 -12 -2 -9 4 6 10 25 14 25 6z m258 -7 c15 -1 0 -5 -33 -9
-33 -5 -62 -6 -64 -4 -7 7 44 23 57 18 8 -2 26 -5 40 -5z m-152 -58 c-3 -5
-14 -11 -25 -14 -14 -3 -18 -1 -14 9 3 8 14 14 25 14 10 0 17 -4 14 -9z m-242
-166 c-21 -16 -44 -20 -44 -7 0 15 13 22 39 22 24 0 24 -1 5 -15z m140 -46
c-10 -12 -38 -32 -61 -46 -24 -14 -43 -28 -43 -32 0 -7 -66 -31 -85 -31 -4 0
11 18 34 40 22 22 41 44 41 49 0 8 28 18 77 27 6 1 19 7 29 12 27 15 30 6 8
-19z m-76 -121 c-2 -6 -10 -14 -16 -16 -7 -2 -10 2 -6 12 7 18 28 22 22 4z
m182 -7 c0 -16 -61 -24 -73 -11 -9 10 -9 11 1 6 6 -4 12 -2 12 3 0 6 14 11 30
11 17 0 30 -4 30 -9z m115 -3 c-11 -6 -22 -14 -25 -17 -10 -13 -62 -31 -71
-25 -12 7 68 51 96 52 l20 1 -20 -11z m-110 -48 c3 -5 1 -10 -4 -10 -6 0 -11
5 -11 10 0 6 2 10 4 10 3 0 8 -4 11 -10z"/>
<path d="M1162 2317 c10 -8 15 -17 11 -20 -3 -4 5 -7 18 -6 13 0 18 3 11 6 -6
2 -10 9 -6 14 3 5 1 9 -5 9 -5 0 -18 3 -28 6 -17 5 -17 5 -1 -9z"/>
<path d="M2706 2291 c-4 -7 -5 -15 -2 -18 9 -9 19 4 14 18 -4 11 -6 11 -12 0z"/>
<path d="M2740 2290 c0 -5 5 -10 10 -10 6 0 10 5 10 10 0 6 -4 10 -10 10 -5 0
-10 -4 -10 -10z"/>
<path d="M80 2260 c0 -5 7 -7 15 -4 8 4 15 8 15 10 0 2 -7 4 -15 4 -8 0 -15
-4 -15 -10z"/>
<path d="M1028 2253 c7 -3 16 -2 19 1 4 3 -2 6 -13 5 -11 0 -14 -3 -6 -6z"/>
<path d="M2736 2215 c4 -8 13 -15 21 -15 13 0 13 3 3 15 -7 8 -16 15 -21 15
-5 0 -6 -7 -3 -15z"/>
<path d="M743 2203 c-18 -2 -33 -8 -33 -13 0 -5 -13 -7 -30 -3 -18 3 -30 1
-30 -5 0 -5 14 -12 30 -14 17 -3 30 0 30 5 0 5 7 6 16 3 9 -4 30 -1 45 6 29
13 39 29 17 26 -7 0 -28 -3 -45 -5z"/>
<path d="M2715 2170 c3 -5 8 -10 11 -10 2 0 4 5 4 10 0 6 -5 10 -11 10 -5 0
-7 -4 -4 -10z"/>
<path d="M640 2140 c0 -5 12 -10 26 -10 14 0 23 4 19 10 -3 6 -15 10 -26 10
-10 0 -19 -4 -19 -10z"/>
<path d="M2670 2135 c-10 -12 -10 -15 3 -15 19 0 31 16 18 24 -5 3 -14 -1 -21
-9z"/>
<path d="M913 2123 c9 -9 19 -14 23 -11 10 10 -6 28 -24 28 -15 0 -15 -1 1
-17z"/>
<path d="M2750 2110 c0 -5 5 -10 10 -10 6 0 10 5 10 10 0 6 -4 10 -10 10 -5 0
-10 -4 -10 -10z"/>
<path d="M543 2099 c-29 -10 -29 -13 2 -43 20 -20 26 -22 36 -10 9 11 8 14 -6
14 -13 0 -15 3 -7 13 17 20 1 36 -25 26z"/>
<path d="M2611 2079 c-13 -5 -22 -12 -19 -14 8 -9 68 7 62 16 -6 11 -12 11
-43 -2z"/>
<path d="M720 2039 c0 -9 27 -19 48 -18 11 0 12 2 4 6 -6 2 -10 9 -7 14 4 5
-5 8 -19 7 -15 -1 -26 -5 -26 -9z"/>
<path d="M640 2003 c0 -5 12 -10 27 -11 34 -3 73 -28 73 -47 0 -8 5 -15 10
-15 6 0 10 5 10 10 0 6 7 10 16 10 8 0 12 5 9 10 -4 6 -14 10 -23 8 -26 -4
-26 16 0 24 21 6 20 6 -7 7 -16 1 -49 4 -72 7 -24 3 -43 2 -43 -3z"/>
<path d="M614 1989 c-5 -9 -18 -19 -29 -24 -18 -7 -18 -9 -3 -12 21 -5 51 22
46 39 -3 9 -7 8 -14 -3z"/>
<path d="M212 1973 c4 -20 27 -27 47 -14 19 12 4 31 -25 31 -19 0 -25 -5 -22
-17z"/>
<path d="M568 1983 c7 -3 16 -2 19 1 4 3 -2 6 -13 5 -11 0 -14 -3 -6 -6z"/>
<path d="M2710 1960 c0 -5 12 -10 26 -10 14 0 23 4 19 10 -3 6 -15 10 -26 10
-10 0 -19 -4 -19 -10z"/>
<path d="M2845 1950 c11 -5 38 -8 60 -8 l40 0 -40 9 c-22 4 -49 8 -60 8 l-20
0 20 -9z"/>
<path d="M255 1940 c3 -5 10 -10 16 -10 5 0 9 5 9 10 0 6 -7 10 -16 10 -8 0
-12 -4 -9 -10z"/>
<path d="M737 1899 c8 -8 16 -8 30 0 16 9 14 10 -11 11 -22 0 -27 -3 -19 -11z"/>
<path d="M790 1897 c0 -19 10 -27 26 -20 11 4 12 9 3 19 -15 18 -29 18 -29 1z"/>
<path d="M535 1890 c-3 -5 1 -10 10 -10 9 0 13 5 10 10 -3 6 -8 10 -10 10 -2
0 -7 -4 -10 -10z"/>
<path d="M633 1870 c-3 -11 -12 -20 -20 -20 -12 0 -12 -2 1 -15 11 -11 21 -13
40 -6 18 8 28 6 37 -5 8 -9 16 -11 22 -5 11 11 0 32 -16 30 -26 -3 -58 14 -53
27 3 8 3 14 0 14 -3 0 -8 -9 -11 -20z"/>
<path d="M100 1873 c-43 -6 -100 -26 -100 -34 0 -9 26 -5 88 13 23 7 42 16 42
20 0 4 -1 7 -2 7 -2 -1 -14 -3 -28 -6z"/>
<path d="M2202 1872 c-7 -5 -10 -16 -6 -25 3 -10 1 -17 -5 -17 -21 0 -11 -18
17 -29 l27 -11 -27 4 c-15 1 -25 -1 -22 -5 7 -12 31 -11 55 2 19 10 19 12 4
35 -14 21 -14 24 0 24 20 0 19 16 -1 24 -20 8 -26 7 -42 -2z"/>
<path d="M895 1850 c3 -5 15 -10 26 -10 10 0 19 5 19 10 0 6 -12 10 -26 10
-14 0 -23 -4 -19 -10z"/>
<path d="M2937 1834 c3 -7 9 -14 14 -14 14 0 10 17 -5 23 -10 4 -13 1 -9 -9z"/>
<path d="M2105 1821 c-3 -2 -5 -8 -5 -13 0 -13 26 -9 38 5 8 10 6 13 -9 13
-11 0 -22 -2 -24 -5z"/>
<path d="M75 1810 c-3 -5 1 -10 9 -10 9 0 16 5 16 10 0 6 -4 10 -9 10 -6 0
-13 -4 -16 -10z"/>
<path d="M199 1803 c-15 -9 -34 -29 -43 -45 -20 -33 -50 -36 -94 -11 -25 14
-32 15 -46 4 -9 -7 -16 -20 -16 -27 0 -16 44 -29 61 -18 9 5 10 2 6 -10 -4
-10 -7 -21 -7 -26 0 -5 -9 -12 -20 -15 -11 -4 -17 -11 -14 -17 5 -7 1 -9 -9
-5 -14 5 -17 0 -17 -25 0 -29 1 -30 18 -16 9 8 37 21 62 28 44 13 98 56 92 73
-1 5 3 15 9 23 9 11 8 14 -1 14 -8 0 -11 2 -8 5 3 3 15 2 28 -3 17 -6 28 -4
42 10 22 22 23 28 3 28 -20 0 -19 16 1 24 17 6 10 26 -9 26 -7 0 -24 -8 -38
-17z"/>
<path d="M35 1800 c3 -5 11 -10 16 -10 6 0 7 5 4 10 -3 6 -11 10 -16 10 -6 0
-7 -4 -4 -10z"/>
<path d="M588 1783 c7 -3 16 -2 19 1 4 3 -2 6 -13 5 -11 0 -14 -3 -6 -6z"/>
<path d="M2134 1776 c-7 -19 3 -36 21 -36 8 0 11 7 8 20 -7 27 -22 35 -29 16z"/>
<path d="M1858 1773 c7 -3 16 -2 19 1 4 3 -2 6 -13 5 -11 0 -14 -3 -6 -6z"/>
<path d="M2080 1766 c0 -9 7 -16 16 -16 17 0 14 22 -4 28 -7 2 -12 -3 -12 -12z"/>
<path d="M2335 1770 c-3 -5 -1 -10 4 -10 6 0 11 5 11 10 0 6 -2 10 -4 10 -3 0
-8 -4 -11 -10z"/>
<path d="M1793 1718 c2 -8 21 -13 44 -13 32 0 39 3 31 13 -6 6 -26 12 -45 12
-23 0 -33 -4 -30 -12z"/>
<path d="M2038 1713 c6 -2 18 -2 25 0 6 3 1 5 -13 5 -14 0 -19 -2 -12 -5z"/>
<path d="M1172 1698 c5 -15 28 -23 28 -10 0 5 -7 13 -16 16 -10 4 -14 1 -12
-6z"/>
<path d="M2070 1690 c0 -5 5 -10 10 -10 6 0 10 5 10 10 0 6 -4 10 -10 10 -5 0
-10 -4 -10 -10z"/>
<path d="M1868 1653 c7 -3 16 -2 19 1 4 3 -2 6 -13 5 -11 0 -14 -3 -6 -6z"/>
<path d="M2056 1644 c-3 -8 -12 -14 -20 -14 -9 0 -18 -11 -22 -25 -3 -14 -10
-25 -16 -25 -5 0 -6 -4 -3 -10 10 -16 40 -12 66 9 13 10 30 16 37 14 6 -3 12
0 12 5 0 6 8 12 18 14 12 3 5 10 -25 25 -34 17 -43 18 -47 7z"/>
<path d="M2120 1650 c0 -5 5 -10 10 -10 6 0 10 5 10 10 0 6 -4 10 -10 10 -5 0
-10 -4 -10 -10z"/>
<path d="M1805 1620 c-3 -5 -2 -10 4 -10 5 0 13 5 16 10 3 6 2 10 -4 10 -5 0
-13 -4 -16 -10z"/>
<path d="M968 1608 c9 -9 15 -9 24 0 9 9 7 12 -12 12 -19 0 -21 -3 -12 -12z"/>
<path d="M1710 1611 c0 -5 13 -11 29 -13 21 -3 28 -1 24 9 -6 14 -53 18 -53 4z"/>
<path d="M1695 1560 c-14 -7 -8 -8 20 -3 22 3 42 7 44 9 9 8 -45 2 -64 -6z"/>
<path d="M2003 1543 c-18 -6 -16 -23 1 -23 17 0 30 16 19 23 -5 2 -14 2 -20 0z"/>
<path d="M2042 1528 c-16 -16 -15 -28 3 -28 8 0 15 6 15 14 0 8 6 17 13 19 8
4 7 6 -3 6 -9 1 -21 -4 -28 -11z"/>
<path d="M1959 1489 l-24 -19 30 0 c34 0 63 15 52 26 -14 14 -33 12 -58 -7z"/>
<path d="M1940 1450 c-13 -9 -13 -10 0 -10 8 0 22 5 30 10 13 9 13 10 0 10 -8
0 -22 -5 -30 -10z"/>
<path d="M1870 1375 c-7 -8 -8 -15 -2 -15 5 0 15 7 22 15 7 8 8 15 2 15 -5 0
-15 -7 -22 -15z"/>
<path d="M2700 1370 c0 -5 5 -10 11 -10 5 0 7 5 4 10 -3 6 -8 10 -11 10 -2 0
-4 -4 -4 -10z"/>
<path d="M2190 1359 c0 -5 5 -7 10 -4 6 3 10 8 10 11 0 2 -4 4 -10 4 -5 0 -10
-5 -10 -11z"/>
<path d="M1102 1313 c-17 -7 4 -33 27 -33 18 0 41 18 41 32 0 9 -47 10 -68 1z"/>
<path d="M1658 1233 c7 -3 16 -2 19 1 4 3 -2 6 -13 5 -11 0 -14 -3 -6 -6z"/>
<path d="M1241 1226 c2 -2 22 -6 44 -9 28 -5 34 -4 20 3 -19 8 -73 14 -64 6z"/>
<path d="M1148 1213 c7 -3 16 -2 19 1 4 3 -2 6 -13 5 -11 0 -14 -3 -6 -6z"/>
<path d="M1179 1194 c-11 -14 -10 -16 9 -12 13 1 23 7 23 13 1 17 -17 16 -32
-1z"/>
<path d="M1348 1203 c7 -3 16 -2 19 1 4 3 -2 6 -13 5 -11 0 -14 -3 -6 -6z"/>
<path d="M1458 1179 c40 -10 87 -25 105 -33 17 -8 47 -20 65 -27 17 -8 32 -17
32 -21 0 -5 10 -8 23 -7 12 0 16 3 10 6 -26 10 -12 23 25 23 27 0 33 -3 22
-10 -13 -8 -12 -10 5 -11 11 -1 29 -1 39 0 10 1 30 -6 43 -14 21 -14 26 -14
45 0 22 15 21 15 -19 15 -36 0 -41 2 -36 20 6 23 19 26 26 8 3 -7 6 -8 6 -3 2
30 -16 37 -67 26 -57 -12 -113 -5 -125 16 -4 7 -18 13 -30 13 -18 0 -19 -2 -7
-11 12 -8 10 -9 -10 -5 -29 8 -211 36 -219 35 -3 0 27 -9 67 -20z"/>
<path d="M1963 1124 c-13 -14 -26 -23 -31 -20 -4 2 -8 -4 -8 -13 0 -11 12 -23
28 -29 27 -10 41 1 16 11 -7 3 -3 6 8 6 12 1 27 8 34 16 7 8 16 12 22 9 5 -3
4 -12 -3 -20 -17 -20 -5 -28 14 -9 9 8 18 15 22 15 4 0 13 7 21 15 14 13 13
15 -8 15 -13 0 -29 5 -34 10 -7 7 -19 8 -37 1 -21 -8 -25 -7 -20 4 8 21 1 18
-24 -11z"/>
<path d="M1523 1123 c9 -2 23 -2 30 0 6 3 -1 5 -18 5 -16 0 -22 -2 -12 -5z"/>
<path d="M1973 947 c-18 -10 -20 -15 -9 -29 12 -16 16 -17 44 -3 16 9 35 22
42 30 11 13 7 15 -21 15 -19 -1 -44 -6 -56 -13z"/>
<path d="M1750 940 c0 -13 -42 -23 -90 -20 -27 1 -75 -9 -120 -25 -70 -24 -72
-25 -25 -18 28 5 78 7 113 6 35 -2 72 2 83 8 20 10 87 -6 100 -25 4 -5 20 -5
35 -1 l29 8 -29 6 c-28 6 -27 7 18 19 27 7 44 16 41 23 -4 5 -16 7 -28 3 -20
-6 -21 -5 -4 7 15 12 8 14 -53 16 -38 1 -70 -2 -70 -7z"/>
<path d="M3645 900 c3 -5 8 -10 11 -10 2 0 4 5 4 10 0 6 -5 10 -11 10 -5 0 -7
-4 -4 -10z"/>
<path d="M1278 823 c7 -3 16 -2 19 1 4 3 -2 6 -13 5 -11 0 -14 -3 -6 -6z"/>
<path d="M1150 801 c-36 -10 -109 -30 -162 -44 -97 -27 -336 -110 -423 -147
-26 -11 -53 -20 -61 -20 -8 0 -81 -25 -162 -56 -81 -30 -180 -67 -219 -81 -40
-15 -73 -30 -73 -34 0 -20 79 -17 145 6 19 6 19 6 3 -8 -22 -17 -23 -27 -4
-27 18 0 30 -30 17 -43 -9 -9 -64 -13 -91 -6 -9 2 -16 -4 -18 -18 -4 -29 -25
-45 -64 -48 l-33 -2 -3 -73 c-3 -70 11 -125 33 -133 5 -2 0 -2 -12 -1 -19 4
-21 0 -20 -30 l2 -34 138 -1 138 -2 147 149 c154 155 314 285 510 414 64 43
123 82 130 88 6 6 12 8 12 5 0 -7 171 84 189 101 12 10 10 12 -10 10 -14 -2
-33 0 -43 4 -16 5 -14 9 15 28 32 21 33 22 9 21 -14 0 -54 -8 -90 -18z m-186
-87 c9 -3 13 -10 10 -15 -3 -5 -10 -7 -15 -4 -5 4 -9 0 -9 -7 0 -15 -35 -40
-44 -31 -12 13 -5 23 16 23 21 0 21 0 2 15 -18 13 -18 14 5 8 17 -4 22 -3 17
5 -8 14 -4 15 18 6z m-594 -198 c0 -2 -7 -7 -16 -10 -8 -3 -12 -2 -9 4 6 10
25 14 25 6z m-65 -36 c-3 -5 -12 -10 -18 -10 -7 0 -6 4 3 10 19 12 23 12 15 0z
m20 -124 c10 -9 14 -24 11 -33 -5 -13 -11 -10 -31 17 -14 19 -25 29 -25 22 0
-6 -7 -9 -15 -6 -25 10 -17 21 14 19 16 -1 37 -9 46 -19z m-255 -166 c0 -5 -2
-10 -4 -10 -3 0 -8 5 -11 10 -3 6 -1 10 4 10 6 0 11 -4 11 -10z m60 -9 c0 -6
-4 -13 -10 -16 -5 -3 -10 1 -10 9 0 9 5 16 10 16 6 0 10 -4 10 -9z"/>
<path d="M1947 739 c-23 -26 -17 -32 17 -20 17 7 26 7 26 1 0 -6 -5 -10 -12
-10 -6 0 -8 -3 -5 -7 9 -8 47 27 47 44 0 21 -53 16 -73 -8z"/>
<path d="M3180 741 c0 -5 7 -12 16 -15 22 -9 24 -8 18 9 -7 16 -34 21 -34 6z"/>
<path d="M3250 725 c14 -8 21 -15 15 -15 -13 0 16 -20 30 -20 6 0 3 5 -5 10
-8 5 -10 10 -5 10 13 1 -36 29 -50 29 -5 0 1 -6 15 -14z"/>
<path d="M1291 714 c-12 -9 -24 -14 -27 -11 -3 3 -32 -8 -65 -24 -50 -24 -57
-31 -47 -43 9 -9 20 -11 36 -5 13 5 21 5 18 0 -6 -9 61 -21 70 -12 2 3 10 6
17 7 15 2 87 44 87 51 0 5 -11 3 -75 -13 -11 -3 -7 3 10 12 17 10 25 19 17 22
-6 2 -10 8 -7 12 10 17 -12 19 -34 4z"/>
<path d="M1658 718 c-16 -5 -28 -14 -28 -20 0 -6 7 -7 16 -4 8 3 12 2 9 -4 -6
-10 15 -14 43 -11 8 1 19 -3 27 -9 9 -8 17 -7 28 4 8 8 17 12 21 9 3 -4 6 -1
6 6 0 8 8 10 23 5 12 -3 18 -3 14 2 -4 4 3 14 15 22 22 12 21 13 -12 6 -92
-18 -129 -20 -132 -9 -2 8 -11 9 -30 3z"/>
<path d="M1905 700 c3 -5 8 -10 11 -10 2 0 4 5 4 10 0 6 -5 10 -11 10 -5 0 -7
-4 -4 -10z"/>
<path d="M2562 680 c0 -14 2 -19 5 -12 2 6 2 18 0 25 -3 6 -5 1 -5 -13z"/>
<path d="M3038 694 c-11 -10 4 -44 20 -44 15 0 84 -47 90 -62 2 -4 9 -8 15 -8
6 0 -4 16 -23 35 -19 19 -40 35 -47 35 -7 0 -13 5 -13 11 0 6 6 8 13 5 6 -3
20 -9 30 -12 9 -4 17 -11 17 -16 0 -12 113 -118 119 -112 3 2 -1 10 -7 16 -7
7 -12 18 -12 25 0 11 5 11 20 3 11 -6 20 -16 20 -23 0 -24 22 -37 43 -26 15 9
18 8 12 -2 -6 -9 -4 -11 8 -6 8 3 18 0 21 -8 3 -8 13 -11 25 -8 24 6 44 -16
109 -118 26 -41 59 -90 75 -109 l28 -35 21 29 c20 26 22 27 29 10 6 -18 7 -18
14 -1 14 34 -156 223 -189 211 -19 -7 -19 -4 -6 31 9 23 12 24 31 14 12 -6 32
-21 43 -33 17 -17 99 -88 177 -153 14 -12 19 -12 32 2 9 8 20 15 25 15 5 0 15
6 21 14 12 15 15 12 -131 134 -73 59 -96 71 -112 55 -11 -12 -30 -10 -41 3 -5
6 -28 14 -49 17 -22 4 -43 12 -47 18 -4 7 -23 13 -42 13 -20 1 -44 9 -55 19
-21 19 -42 22 -42 7 0 -5 -4 -10 -10 -10 -5 0 -10 6 -10 13 0 7 -10 17 -22 22
-13 6 -22 15 -21 20 1 6 -11 10 -27 10 -18 0 -26 -4 -23 -13 4 -9 -1 -10 -18
-4 -33 13 -105 23 -111 16z m572 -428 c0 -3 -4 -8 -10 -11 -5 -3 -10 -1 -10 4
0 6 5 11 10 11 6 0 10 -2 10 -4z"/>
<path d="M1388 632 c-16 -9 -28 -21 -28 -26 0 -4 8 -2 17 5 15 12 16 12 10 -5
-6 -16 -5 -17 8 -6 8 7 13 16 10 20 -3 5 -1 11 5 15 5 3 10 1 10 -5 0 -6 5 -8
10 -5 11 7 4 25 -8 25 -4 0 -19 -8 -34 -18z"/>
<path d="M2626 641 c-5 -7 -14 -10 -21 -7 -21 8 -85 -19 -101 -42 -8 -12 -24
-22 -34 -22 -10 0 -22 -5 -25 -11 -4 -6 -13 -8 -20 -5 -19 7 -58 -33 -52 -55
3 -11 1 -22 -4 -25 -5 -3 -9 -10 -9 -16 0 -10 17 -8 52 7 11 4 18 0 23 -14 10
-31 35 -25 42 10 4 21 8 26 14 18 4 -7 5 -17 3 -21 -3 -4 2 -8 10 -8 19 0 22
-36 4 -43 -7 -3 10 -4 37 -2 28 2 56 -2 63 -8 11 -8 12 -5 6 19 -7 26 -6 28 9
15 13 -10 17 -11 17 -1 0 22 44 55 68 52 12 -2 22 1 22 6 0 11 38 4 56 -10 7
-5 14 -3 17 6 7 17 -1 26 -23 26 -9 0 -22 11 -28 25 -6 13 -23 27 -37 31 -14
3 -25 12 -25 20 0 8 -7 14 -15 14 -8 0 -15 4 -15 8 0 5 -6 16 -13 27 -10 13
-16 15 -21 6z"/>
<path d="M1030 583 c-195 -108 -380 -253 -580 -453 -141 -140 -138 -130 -37
-130 l85 0 53 51 c71 67 302 252 462 369 70 52 127 98 127 102 0 4 8 8 18 9 9
0 12 3 5 6 -8 3 -3 13 15 29 23 20 25 25 12 34 -20 13 -26 13 -44 -6 -9 -8
-25 -16 -36 -17 -11 -1 -20 -7 -20 -13 0 -6 -11 -14 -25 -16 -33 -7 -32 -1 10
38 43 43 36 42 -45 -3z m150 7 c0 -5 -2 -10 -4 -10 -3 0 -8 5 -11 10 -3 6 -1
10 4 10 6 0 11 -4 11 -10z"/>
<path d="M1530 572 c0 -6 -11 -14 -24 -18 -31 -7 -61 -39 -47 -48 13 -8 89 60
78 70 -4 4 -7 2 -7 -4z m-40 -46 c0 -2 -7 -7 -16 -10 -8 -3 -12 -2 -9 4 6 10
25 14 25 6z"/>
<path d="M1223 527 c-18 -12 -81 -54 -140 -93 -125 -81 -388 -285 -483 -373
l-65 -60 93 -1 92 0 148 129 c81 71 203 176 272 233 69 57 125 108 125 113 0
6 4 16 8 23 6 8 2 12 -10 12 -15 0 -16 2 -3 10 13 9 13 10 0 10 -13 0 -13 1 0
10 8 5 11 9 5 9 -5 -1 -25 -11 -42 -22z"/>
<path d="M1295 521 c-6 -11 9 -23 19 -14 9 9 7 23 -3 23 -6 0 -12 -4 -16 -9z"/>
<path d="M3170 509 c0 -12 14 -34 31 -50 17 -15 29 -25 27 -21 -2 4 -12 26
-23 50 -21 46 -35 54 -35 21z"/>
<path d="M1430 493 c-33 -13 -326 -259 -469 -394 l-105 -99 45 0 44 0 254 250
c139 138 252 250 250 249 -2 0 -11 -3 -19 -6z"/>
<path d="M1504 463 c-129 -97 -305 -260 -426 -395 l-60 -68 123 1 124 0 57 87
c32 48 109 154 173 235 63 82 112 153 109 158 -9 15 -24 10 -24 -7 0 -11 -5
-14 -16 -10 -9 3 -18 6 -21 6 -3 0 0 7 7 15 20 24 6 18 -46 -22z"/>
<path d="M1215 388 c-197 -151 -453 -366 -454 -380 -1 -5 14 -8 32 -8 27 0 44
12 107 76 41 41 138 130 214 197 77 67 153 134 169 150 52 47 15 29 -68 -35z"/>
<path d="M3394 433 c15 -41 152 -231 160 -223 10 10 -27 76 -97 173 -46 63
-77 88 -63 50z"/>
<path d="M1647 433 c-9 -2 -15 -9 -12 -14 3 -5 0 -6 -8 -4 -23 9 -254 -272
-331 -402 -5 -10 9 -13 61 -13 l68 0 32 63 c18 34 54 93 79 132 69 105 144
228 144 237 0 8 -4 9 -33 1z"/>
<path d="M2684 425 c11 -8 24 -15 30 -15 5 0 1 7 -10 15 -10 8 -23 14 -29 14
-5 0 -1 -6 9 -14z"/>
<path d="M3590 431 c1 -13 120 -131 120 -118 0 4 -27 34 -60 66 -33 32 -60 56
-60 52z"/>
<path d="M3260 426 c0 -2 7 -23 16 -47 18 -53 49 -163 78 -284 l22 -90 42 -3
c29 -2 42 1 42 10 0 10 2 10 9 0 6 -10 10 -7 13 12 3 14 1 26 -4 26 -5 0 -6 4
-3 10 3 5 0 19 -8 31 -11 15 -16 17 -20 7 -3 -7 -5 -2 -5 12 1 32 -17 72 -84
191 -30 52 -57 103 -61 112 -5 14 -37 25 -37 13z m197 -378 c-3 -8 -6 -5 -6 6
-1 11 2 17 5 13 3 -3 4 -12 1 -19z"/>
<path d="M3320 423 c0 -3 19 -38 98 -177 59 -103 82 -139 82 -127 0 8 6 11 16
7 10 -4 13 -2 8 6 -5 7 -2 9 9 5 11 -4 14 -2 10 8 -3 8 -9 13 -13 10 -5 -3
-11 9 -15 26 -16 72 -130 234 -169 241 -14 3 -26 3 -26 1z"/>
<path d="M1795 409 c-4 -6 -5 -12 -2 -15 2 -3 7 2 10 11 7 17 1 20 -8 4z"/>
<path d="M3230 407 c0 -9 11 -46 25 -83 31 -83 32 -118 1 -44 -43 103 -56 123
-72 109 -8 -6 -14 -8 -14 -3 0 4 -6 0 -13 -11 -9 -12 -16 -14 -21 -7 -4 7 -15
6 -34 -4 -15 -7 -33 -14 -39 -14 -7 0 -13 -5 -13 -10 0 -7 -6 -7 -19 0 -27 14
-31 13 -31 -10 0 -13 -7 -20 -20 -20 -11 0 -20 -4 -20 -10 0 -5 -7 -10 -15
-10 -9 0 -25 -16 -37 -36 -16 -28 -25 -34 -43 -30 -27 7 -92 -27 -125 -66 -20
-24 -33 -30 -65 -30 -21 0 -50 -4 -63 -9 -16 -6 -29 -5 -43 5 -14 9 -31 11
-55 6 -19 -4 -34 -4 -34 1 0 15 -29 10 -57 -9 -15 -9 -36 -17 -48 -18 -11 0
-30 -4 -42 -8 -17 -5 -23 -3 -23 7 0 16 -25 26 -78 32 -40 5 -52 12 -52 30 0
8 -6 12 -14 9 -7 -3 -21 6 -30 20 -21 32 -27 32 -66 0 -34 -29 -53 -25 -27 4
19 21 22 42 6 42 -5 0 -7 5 -3 12 4 7 3 8 -5 4 -6 -4 -14 0 -17 8 -3 9 -15 16
-25 16 -10 0 -18 6 -16 13 1 6 -5 12 -13 12 -8 0 -19 6 -23 13 -4 6 -21 12
-37 12 -17 0 -30 5 -30 10 0 17 -28 11 -40 -7 -8 -14 -9 -9 -5 22 3 22 2 33
-2 25 -3 -8 -14 -21 -24 -30 -10 -8 -34 -42 -54 -74 -43 -74 -44 -67 -3 25 23
52 29 75 22 87 -17 27 -28 23 -69 -29 -67 -84 -72 -89 -83 -89 -12 0 -45 -49
-45 -67 0 -7 -4 -10 -8 -8 -7 5 -16 -11 -17 -29 0 -5 -5 -12 -11 -16 -6 -3
-32 -38 -57 -76 l-45 -69 957 -3 c526 -1 959 -1 960 1 2 1 -12 63 -31 137 -45
180 -95 321 -95 267z"/>
<path d="M10 340 c0 -5 5 -10 10 -10 6 0 10 5 10 10 0 6 -4 10 -10 10 -5 0
-10 -4 -10 -10z"/>
<path d="M3696 237 c3 -10 9 -15 12 -12 3 3 0 11 -7 18 -10 9 -11 8 -5 -6z"/>
<path d="M3612 210 c7 -10 14 -18 15 -16 6 6 -9 36 -18 36 -5 0 -4 -9 3 -20z"/>
<path d="M3570 179 c0 -5 5 -7 10 -4 6 3 10 8 10 11 0 2 -4 4 -10 4 -5 0 -10
-5 -10 -11z"/>
<path d="M3585 150 c-3 -5 -1 -10 5 -10 6 0 8 -5 4 -12 -4 -7 -3 -8 4 -4 6 4
9 13 5 21 -6 18 -10 19 -18 5z"/>
<path d="M3508 104 c-8 -8 40 -104 52 -104 15 0 12 17 -5 24 -8 3 -15 12 -15
20 0 19 -26 67 -32 60z"/>
<path d="M3550 101 c0 -5 5 -13 10 -16 6 -3 10 -2 10 4 0 5 -4 13 -10 16 -5 3
-10 2 -10 -4z"/>
<path d="M3630 64 c0 -6 7 -19 16 -30 14 -18 14 -18 3 6 -14 31 -19 36 -19 24z"/>
<path d="M3571 32 c8 -22 14 -30 19 -22 6 9 9 9 12 -1 3 -8 8 -11 12 -8 10 9
-5 40 -16 33 -5 -3 -16 2 -24 12 -12 17 -12 15 -3 -14z"/>
<path d="M3490 21 c0 -6 4 -13 10 -16 6 -3 7 1 4 9 -7 18 -14 21 -14 7z"/>
</g>
</svg>
